<svg width="34" height="34" viewBox="0 0 34 34" fill="none" xmlns="http://www.w3.org/2000/svg">
<path d="M17 10.1734C19.2313 10.1734 21.0428 8.36718 21.0428 6.14656C20.8247 0.812995 13.1745 0.814547 12.9572 6.1466C12.9572 8.36718 14.7688 10.1734 17 10.1734Z" fill="#11D2B0"/>
<path d="M27.7313 8.27686C27.1363 7.44811 25.9675 7.1878 25.0006 7.66063L19.9909 10.1522C18.1209 11.0819 15.8791 11.0819 14.0091 10.1522L8.99939 7.66063C7.44373 6.83925 5.53477 8.20866 5.91287 9.90787C6.02969 10.4709 6.37501 10.9703 6.86907 11.2731L13.3928 15.2894L13.2919 19.6509L9.22782 28.6397C8.72313 29.7659 9.17471 31.11 10.2425 31.6359C11.3297 32.2015 12.7692 31.7174 13.2866 30.6106C13.2866 30.6106 17 23.019 17 23.019L20.6762 30.5309C21.4436 32.2378 23.9613 32.3156 24.7563 30.6371C25.0644 30.0315 25.0803 29.3303 24.7988 28.7087L20.7081 19.6509L20.6072 15.2894L27.131 11.2731C28.1467 10.6724 28.4508 9.22555 27.7313 8.27686Z" fill="#11D2B0"/>
</svg>
