<svg width="34" height="34" viewBox="0 0 34 34" fill="none" xmlns="http://www.w3.org/2000/svg">
<path d="M17.0001 10.1734C19.2313 10.1734 21.0429 8.36718 21.0429 6.14656C20.8248 0.812995 13.1746 0.814547 12.9573 6.1466C12.9573 8.36718 14.7688 10.1734 17.0001 10.1734Z" fill="#11D2B0"/>
<path d="M27.7311 8.27686C27.1361 7.44811 25.9674 7.1878 25.0005 7.66063L19.9908 10.1522C18.1208 11.0819 15.879 11.0819 14.0089 10.1522L8.99926 7.66063C7.4436 6.83925 5.53465 8.20866 5.91275 9.90787C6.02957 10.4709 6.37489 10.9703 6.86895 11.2731L13.3927 15.2894L13.2918 19.6509L9.2277 28.6397C8.72301 29.7659 9.17459 31.11 10.2424 31.6359C11.3295 32.2015 12.769 31.7174 13.2865 30.6106C13.2865 30.6106 16.9999 23.019 16.9999 23.019L20.6761 30.5309C21.4434 32.2378 23.9612 32.3156 24.7561 30.6371C25.0643 30.0315 25.0802 29.3303 24.7986 28.7087L20.708 19.6509L20.6071 15.2894L27.1308 11.2731C28.1466 10.6724 28.4507 9.22555 27.7311 8.27686Z" fill="#11D2B0"/>
</svg>
