<svg width="22" height="22" viewBox="0 0 22 22" fill="none" xmlns="http://www.w3.org/2000/svg">
<g clip-path="url(#clip0_15_9027)">
<path d="M15.0085 14.6882H6.99161L6.28052 16.4158L6.15723 16.7153H7.70302C7.70086 16.7018 7.69886 16.6882 7.69886 16.6741V16.4158V15.9246C7.69886 15.7796 7.81642 15.662 7.96151 15.662C8.10655 15.662 8.22416 15.7795 8.22416 15.9246V16.4158V16.6741C8.22416 16.6882 8.22216 16.7018 8.22 16.7153H10.7416C10.7394 16.7018 10.7374 16.6882 10.7374 16.6741V16.4158V15.9246C10.7374 15.7796 10.855 15.662 11.0001 15.662C11.1451 15.662 11.2627 15.7795 11.2627 15.9246V16.4158V16.6741C11.2627 16.6882 11.2607 16.7018 11.2586 16.7153H13.7802C13.778 16.7018 13.776 16.6882 13.776 16.6741V16.4158V15.9246C13.776 15.7796 13.8936 15.662 14.0387 15.662C14.1838 15.662 14.3013 15.7795 14.3013 15.9246V16.4158V16.6741C14.3013 16.6882 14.2993 16.7018 14.2972 16.7153H15.8429L15.7196 16.4158L15.0085 14.6882Z" fill="white"/>
<path d="M21.8473 7.94552C21.7949 7.79326 21.6096 7.67481 21.4548 7.67481C20.7848 7.67481 20.1147 7.67481 19.4447 7.67481C19.2899 7.67481 19.1045 7.79332 19.0522 7.94552C18.9803 8.15484 18.9344 8.33231 18.9133 8.50077C18.0291 6.79831 17.05 4.90342 17.05 4.90342C16.9537 4.63434 16.7211 4.43729 16.44 4.38643C14.629 4.05887 12.7988 3.89282 11.0005 3.89282C9.20222 3.89282 7.37171 4.05887 5.56 4.38643C5.27887 4.43724 5.04623 4.63434 4.94994 4.90336C4.94994 4.90336 3.97083 6.79831 3.08664 8.50072C3.06553 8.33231 3.01957 8.15478 2.94765 7.94546C2.89538 7.79321 2.71001 7.67476 2.55528 7.67476C1.88526 7.67476 1.21512 7.67476 0.545097 7.67476C0.390371 7.67476 0.205004 7.79326 0.152621 7.94546C-0.0509614 8.53815 -0.0508034 8.87751 0.152674 9.47025C0.205004 9.6225 0.390371 9.74096 0.545097 9.74096C1.21391 9.74096 1.88273 9.74096 2.55149 9.74096C2.55191 9.76602 2.55333 9.79097 2.55612 9.81593C2.13301 9.94428 1.82498 10.3371 1.82498 10.8021V15.1283V15.3848V17.6118C1.82498 17.8854 2.04667 18.1072 2.32032 18.1072H4.81375C5.08735 18.1072 5.30914 17.8854 5.30914 17.6118V16.4156H5.71247L6.57281 14.3254C6.61335 14.227 6.70921 14.1628 6.81566 14.1628H15.1844C15.2908 14.1628 15.3868 14.227 15.4272 14.3254L16.2875 16.4156H16.6909V17.6118C16.6909 17.8854 16.9127 18.1072 17.1863 18.1072H19.6797C19.9533 18.1072 20.175 17.8854 20.175 17.6118V15.3848V15.1283V10.8021C20.175 10.3371 19.867 9.94428 19.4439 9.81593C19.4467 9.79097 19.4481 9.76602 19.4485 9.74096C20.1173 9.74096 20.7861 9.74096 21.4549 9.74096C21.6096 9.74096 21.795 9.62256 21.8474 9.47025C22.0509 8.87756 22.0508 8.53821 21.8473 7.94552ZM6.05524 5.48705C6.05524 5.48705 7.25247 5.18318 11 5.18318C14.7475 5.18318 15.9446 5.48705 15.9446 5.48705L17.702 9.74101H4.29797L6.05524 5.48705ZM3.87117 12.8479V11.4503H6.89827L7.79767 12.8479H3.87117ZM18.1287 12.8479H14.2022L15.1016 11.4503H18.1287V12.8479Z" fill="white"/>
</g>
<defs>
<clipPath id="clip0_15_9027">
<rect width="22" height="22" fill="white"/>
</clipPath>
</defs>
</svg>
