<svg width="36" height="36" viewBox="0 0 36 36" fill="none" xmlns="http://www.w3.org/2000/svg">
<path d="M12.5868 8.64073V8.09918C16.1805 7.52958 19.8194 7.52958 23.4131 8.09918V8.64073C19.8189 8.24157 16.181 8.24157 12.5868 8.64073ZM11.2889 9.23965C11.0765 9.49362 11.1229 10.2296 11.4632 10.6631C11.6462 10.8962 11.8584 10.975 12.1084 10.9028C11.9776 10.3575 11.9026 9.80075 11.8871 9.24886C11.6685 9.14824 11.4175 9.08588 11.2889 9.23965ZM23.6447 7.42383L25.2273 5.87428C25.3372 5.76664 25.3838 5.63452 25.3658 5.48173C25.3478 5.32887 25.2718 5.21124 25.1399 5.13207L18.8784 1.37513C18.5992 1.20764 18.2996 1.1239 17.9998 1.1239C17.7001 1.1239 17.4005 1.20764 17.1213 1.37513L10.8599 5.13207C10.728 5.21117 10.6519 5.32887 10.634 5.48166C10.616 5.63452 10.6626 5.76664 10.7725 5.87421L12.3551 7.42383C16.1019 6.81654 19.8981 6.81654 23.6447 7.42383ZM23.8914 10.9028C24.1387 10.9742 24.3492 10.8976 24.5309 10.6703C24.8746 10.2402 24.9249 9.50121 24.713 9.24225C24.5841 9.08482 24.3292 9.14958 24.1127 9.24893C24.0972 9.80082 24.0222 10.3575 23.8914 10.9028ZM18.5279 20.2936C19.403 20.3535 20.2381 20.5611 21.0084 20.8918L22.9226 16.7688L21.6059 16.3346L18.528 20.2936H18.5279ZM25.621 27.2532H30.0237V22.1293C30.0237 20.2672 28.8279 18.7162 26.9029 18.0814L23.5948 16.9905L21.6412 21.1984C23.841 22.3938 25.3919 24.6369 25.621 27.2532ZM14.3584 21.1984L12.4048 16.9905L9.09665 18.0814C7.17171 18.7161 5.97583 20.2672 5.97583 22.1293V27.2532H10.3786C10.6077 24.6369 12.1586 22.3939 14.3583 21.1984H14.3584ZM13.012 9.30103C14.3794 10.5122 16.16 11.1955 17.9998 11.1955C19.8396 11.1955 21.6202 10.5122 22.9876 9.30103C19.6741 8.95735 16.3254 8.95735 13.012 9.30103ZM17.4717 20.2936L14.3938 16.3346L13.0771 16.7688L14.9913 20.8918C15.7616 20.5611 16.5967 20.3535 17.4718 20.2936H17.4717ZM17.9998 15.4774C21.0295 15.4774 23.0132 12.7311 23.3589 9.90987C21.8767 11.1825 19.9692 11.8987 17.9998 11.8987C16.0303 11.8987 14.1229 11.1825 12.6406 9.90987C12.9863 12.7311 14.97 15.4774 17.9998 15.4774ZM21.0551 15.2402C20.1908 15.828 19.1637 16.1805 17.9998 16.1805C16.8511 16.1805 15.8357 15.837 14.9784 15.263L14.8899 15.8274L17.9998 19.8273L21.116 15.8191L21.0551 15.2403V15.2402ZM17.9998 26.6463C17.294 26.6463 16.7199 27.2205 16.7199 27.9261C16.7199 28.6318 17.2941 29.2059 17.9998 29.2059C18.7054 29.2059 19.2796 28.6318 19.2796 27.9261C19.2796 27.2204 18.7054 26.6463 17.9998 26.6463ZM24.9478 27.9261C24.9478 31.7572 21.8309 34.8741 17.9998 34.8741C14.1686 34.8741 11.0518 31.7572 11.0518 27.9261C11.0518 24.095 14.1686 20.9781 17.9998 20.9781C21.8309 20.9781 24.9478 24.095 24.9478 27.9261ZM23.7889 26.977C23.5677 25.6185 22.8678 24.374 21.8179 23.4729C20.7564 22.5618 19.4005 22.0601 17.9998 22.0601C16.5992 22.0601 15.2432 22.5618 14.1817 23.4729C13.1318 24.3741 12.4318 25.6185 12.2106 26.977C12.1941 27.0788 12.223 27.1827 12.2898 27.2612C12.3566 27.3398 12.4546 27.3851 12.5576 27.3851H16.0925C16.0436 27.5572 16.0168 27.7385 16.0168 27.926C16.0168 28.1136 16.0435 28.2949 16.0925 28.467H12.5574C12.4543 28.467 12.3563 28.5123 12.2895 28.5908C12.2227 28.6694 12.1938 28.7733 12.2104 28.8751C12.6156 31.3648 14.5608 33.3099 17.0508 33.7152C17.0696 33.7182 17.0884 33.7197 17.1072 33.7197C17.19 33.7197 17.271 33.6904 17.335 33.636C17.4135 33.5692 17.4588 33.4712 17.4588 33.3682V29.8333C17.6309 29.8822 17.8122 29.909 17.9998 29.909C18.1873 29.909 18.3687 29.8823 18.5407 29.8333V33.3682C18.5407 33.4712 18.586 33.5692 18.6646 33.636C18.7286 33.6904 18.8095 33.7197 18.8923 33.7197C18.9111 33.7197 18.93 33.7182 18.9488 33.7152C21.4387 33.3099 23.3839 31.3647 23.7892 28.8751C23.8057 28.7733 23.7768 28.6694 23.71 28.5908C23.6432 28.5123 23.5452 28.467 23.4422 28.467H19.9071C19.9559 28.2949 19.9827 28.1136 19.9827 27.926C19.9827 27.7384 19.956 27.5571 19.9071 27.3851H23.4419C23.545 27.3851 23.6429 27.3398 23.7097 27.2612C23.7765 27.1827 23.8054 27.0788 23.7889 26.977H23.7889ZM17.9998 22.7632C15.5958 22.7632 13.5502 24.3878 12.9877 26.6819H16.4572C16.821 26.2317 17.3772 25.9431 17.9998 25.9431C18.6223 25.9431 19.1785 26.2317 19.5423 26.6819H23.0118C22.4493 24.3878 20.4037 22.7632 17.9998 22.7632H17.9998Z" fill="white"/>
</svg>
