<svg width="22" height="23" viewBox="0 0 22 23" fill="none" xmlns="http://www.w3.org/2000/svg">
<path d="M7.69192 5.52044V5.17445C9.8881 4.81054 12.1119 4.81054 14.308 5.17445V5.52044C12.1116 5.26541 9.8884 5.26541 7.69192 5.52044ZM6.89881 5.90308C6.769 6.06534 6.79736 6.53554 7.00533 6.81252C7.11713 6.96144 7.24681 7.01175 7.39961 6.96562C7.31964 6.61725 7.27384 6.26156 7.26434 5.90897C7.13075 5.84468 6.9774 5.80484 6.89881 5.90308ZM14.4496 4.74297L15.4167 3.75298C15.4839 3.68421 15.5124 3.5998 15.5014 3.50219C15.4904 3.40453 15.4439 3.32937 15.3633 3.27879L11.5368 0.878523C11.3662 0.77152 11.1831 0.718018 10.9999 0.718018C10.8167 0.718018 10.6337 0.77152 10.4631 0.878523L6.63661 3.27879C6.556 3.32933 6.50951 3.40453 6.49855 3.50214C6.48755 3.5998 6.51604 3.68421 6.58325 3.75294L7.55034 4.74297C9.84006 4.35498 12.1599 4.35498 14.4496 4.74297ZM14.6003 6.96562C14.7515 7.01126 14.8801 6.96234 14.9911 6.81711C15.2012 6.54232 15.2319 6.07019 15.1024 5.90474C15.0236 5.80416 14.8679 5.84554 14.7356 5.90901C14.7261 6.2616 14.6802 6.61725 14.6003 6.96562ZM11.3227 12.9653C11.8574 13.0036 12.3677 13.1362 12.8385 13.3475L14.0083 10.7134L13.2037 10.436L11.3227 12.9653H11.3227ZM15.6573 17.4117H18.3478V14.1381C18.3478 12.9484 17.6171 11.9575 16.4407 11.552L14.4191 10.855L13.2252 13.5434C14.5695 14.3071 15.5173 15.7402 15.6573 17.4117ZM8.77461 13.5434L7.58072 10.855L5.55908 11.552C4.38273 11.9575 3.65192 12.9484 3.65192 14.1381V17.4117H6.34249C6.48248 15.7402 7.43029 14.3072 8.77457 13.5434H8.77461ZM7.9518 5.9423C8.78741 6.71612 9.8756 7.15267 10.9999 7.15267C12.1242 7.15267 13.2124 6.71612 14.048 5.9423C12.0231 5.72272 9.97666 5.72272 7.9518 5.9423ZM10.6772 12.9653L8.79622 10.436L7.99159 10.7134L9.16137 13.3475C9.63214 13.1362 10.1424 13.0036 10.6772 12.9653H10.6772ZM10.9999 9.88828C12.8514 9.88828 14.0636 8.13372 14.2749 6.33128C13.3691 7.14432 12.2034 7.60189 10.9999 7.60189C9.79632 7.60189 8.63066 7.14436 7.72484 6.33128C7.93612 8.13372 9.14835 9.88828 10.9999 9.88828ZM12.867 9.73676C12.3388 10.1123 11.7112 10.3375 10.9999 10.3375C10.2979 10.3375 9.67738 10.1181 9.15351 9.75136L9.09941 10.1119L10.9999 12.6674L12.9042 10.1066L12.867 9.7368V9.73676ZM10.9999 17.024C10.5686 17.024 10.2178 17.3908 10.2178 17.8417C10.2178 18.2925 10.5686 18.6593 10.9999 18.6593C11.4311 18.6593 11.782 18.2925 11.782 17.8417C11.782 17.3908 11.4311 17.024 10.9999 17.024ZM15.2459 17.8417C15.2459 20.2893 13.3411 22.2807 10.9999 22.2807C8.65864 22.2807 6.75387 20.2893 6.75387 17.8417C6.75387 15.394 8.65864 13.4027 10.9999 13.4027C13.3411 13.4027 15.2459 15.394 15.2459 17.8417ZM14.5377 17.2353C14.4025 16.3673 13.9748 15.5722 13.3332 14.9966C12.6845 14.4145 11.8559 14.0939 10.9999 14.0939C10.144 14.0939 9.31528 14.4145 8.66659 14.9966C8.02502 15.5723 7.59722 16.3674 7.46208 17.2353C7.45199 17.3003 7.46965 17.3667 7.51047 17.4169C7.55129 17.4671 7.61114 17.496 7.67414 17.496H9.8343C9.80444 17.6059 9.78807 17.7218 9.78807 17.8416C9.78807 17.9614 9.8044 18.0773 9.8343 18.1872H7.67396C7.61097 18.1872 7.55112 18.2162 7.5103 18.2663C7.46948 18.3165 7.45182 18.3829 7.46191 18.4479C7.70954 20.0386 8.89832 21.2813 10.4199 21.5402C10.4314 21.5421 10.443 21.5431 10.4544 21.5431C10.505 21.5431 10.5545 21.5244 10.5936 21.4896C10.6416 21.4469 10.6693 21.3844 10.6693 21.3185V19.0602C10.7745 19.0914 10.8853 19.1085 10.9999 19.1085C11.1145 19.1085 11.2253 19.0914 11.3305 19.0602V21.3185C11.3305 21.3844 11.3581 21.4469 11.4061 21.4896C11.4453 21.5244 11.4947 21.5431 11.5453 21.5431C11.5568 21.5431 11.5684 21.5422 11.5798 21.5402C13.1015 21.2813 14.2902 20.0386 14.5378 18.4479C14.5479 18.3829 14.5303 18.3165 14.4895 18.2663C14.4486 18.2162 14.3888 18.1872 14.3258 18.1872H12.1654C12.1953 18.0773 12.2117 17.9615 12.2117 17.8416C12.2117 17.7218 12.1954 17.6059 12.1654 17.496H14.3256C14.3886 17.496 14.4485 17.4671 14.4893 17.4169C14.5301 17.3667 14.5478 17.3003 14.5377 17.2353H14.5377ZM10.9999 14.5431C9.53082 14.5431 8.28068 15.5811 7.93693 17.0468H10.0572C10.2795 16.7591 10.6194 16.5747 10.9999 16.5747C11.3803 16.5747 11.7202 16.7591 11.9425 17.0468H14.0628C13.7191 15.5811 12.469 14.5431 10.9999 14.5431H10.9999Z" fill="white"/>
</svg>
