<svg width="22" height="23" viewBox="0 0 22 23" fill="none" xmlns="http://www.w3.org/2000/svg">
<path d="M7.69186 5.52044V5.17445C9.88804 4.81054 12.1118 4.81054 14.308 5.17445V5.52044C12.1115 5.26541 9.88834 5.26541 7.69186 5.52044ZM6.89875 5.90308C6.76894 6.06534 6.7973 6.53554 7.00527 6.81252C7.11707 6.96144 7.24675 7.01175 7.39955 6.96562C7.31958 6.61725 7.27378 6.26156 7.26428 5.90897C7.13069 5.84468 6.97734 5.80484 6.89875 5.90308ZM14.4495 4.74297L15.4166 3.75298C15.4838 3.68421 15.5123 3.5998 15.5013 3.50219C15.4903 3.40453 15.4439 3.32937 15.3632 3.27879L11.5368 0.878523C11.3662 0.77152 11.183 0.718018 10.9999 0.718018C10.8167 0.718018 10.6336 0.77152 10.463 0.878523L6.63655 3.27879C6.55594 3.32933 6.50945 3.40453 6.49849 3.50214C6.48749 3.5998 6.51598 3.68421 6.58318 3.75294L7.55028 4.74297C9.84 4.35498 12.1599 4.35498 14.4495 4.74297ZM14.6003 6.96562C14.7514 7.01126 14.88 6.96234 14.9911 6.81711C15.2011 6.54232 15.2318 6.07019 15.1023 5.90474C15.0236 5.80416 14.8678 5.84554 14.7355 5.90901C14.726 6.2616 14.6802 6.61725 14.6003 6.96562ZM11.3226 12.9653C11.8573 13.0036 12.3677 13.1362 12.8384 13.3475L14.0082 10.7134L13.2036 10.436L11.3226 12.9653H11.3226ZM15.6572 17.4117H18.3478V14.1381C18.3478 12.9484 17.617 11.9575 16.4406 11.552L14.419 10.855L13.2252 13.5434C14.5694 14.3071 15.5172 15.7402 15.6572 17.4117ZM8.77455 13.5434L7.58066 10.855L5.55902 11.552C4.38267 11.9575 3.65186 12.9484 3.65186 14.1381V17.4117H6.34243C6.48242 15.7402 7.43023 14.3072 8.7745 13.5434H8.77455ZM7.95174 5.9423C8.78735 6.71612 9.87554 7.15267 10.9999 7.15267C12.1242 7.15267 13.2123 6.71612 14.0479 5.9423C12.023 5.72272 9.9766 5.72272 7.95174 5.9423ZM10.6771 12.9653L8.79616 10.436L7.99153 10.7134L9.16131 13.3475C9.63207 13.1362 10.1424 13.0036 10.6772 12.9653H10.6771ZM10.9998 9.88828C12.8513 9.88828 14.0636 8.13372 14.2748 6.33128C13.369 7.14432 12.2034 7.60189 10.9998 7.60189C9.79626 7.60189 8.6306 7.14436 7.72478 6.33128C7.93606 8.13372 9.14829 9.88828 10.9998 9.88828ZM12.867 9.73676C12.3388 10.1123 11.7111 10.3375 10.9998 10.3375C10.2978 10.3375 9.67732 10.1181 9.15345 9.75136L9.09935 10.1119L10.9998 12.6674L12.9042 10.1066L12.867 9.7368V9.73676ZM10.9998 17.024C10.5685 17.024 10.2177 17.3908 10.2177 17.8417C10.2177 18.2925 10.5686 18.6593 10.9998 18.6593C11.431 18.6593 11.7819 18.2925 11.7819 17.8417C11.7819 17.3908 11.431 17.024 10.9998 17.024ZM15.2458 17.8417C15.2458 20.2893 13.3411 22.2807 10.9998 22.2807C8.65857 22.2807 6.75381 20.2893 6.75381 17.8417C6.75381 15.394 8.65857 13.4027 10.9998 13.4027C13.3411 13.4027 15.2458 15.394 15.2458 17.8417ZM14.5376 17.2353C14.4025 16.3673 13.9747 15.5722 13.3331 14.9966C12.6844 14.4145 11.8558 14.0939 10.9999 14.0939C10.1439 14.0939 9.31522 14.4145 8.66652 14.9966C8.02496 15.5723 7.59716 16.3674 7.46202 17.2353C7.45193 17.3003 7.46959 17.3667 7.51041 17.4169C7.55123 17.4671 7.61108 17.496 7.67408 17.496H9.83424C9.80438 17.6059 9.78801 17.7218 9.78801 17.8416C9.78801 17.9614 9.80434 18.0773 9.83424 18.1872H7.6739C7.61091 18.1872 7.55106 18.2162 7.51024 18.2663C7.46941 18.3165 7.45175 18.3829 7.46185 18.4479C7.70948 20.0386 8.89825 21.2813 10.4199 21.5402C10.4314 21.5421 10.4429 21.5431 10.4544 21.5431C10.505 21.5431 10.5544 21.5244 10.5935 21.4896C10.6415 21.4469 10.6692 21.3844 10.6692 21.3185V19.0602C10.7744 19.0914 10.8852 19.1085 10.9998 19.1085C11.1144 19.1085 11.2253 19.0914 11.3304 19.0602V21.3185C11.3304 21.3844 11.3581 21.4469 11.4061 21.4896C11.4452 21.5244 11.4946 21.5431 11.5453 21.5431C11.5567 21.5431 11.5683 21.5422 11.5798 21.5402C13.1014 21.2813 14.2901 20.0386 14.5378 18.4479C14.5479 18.3829 14.5302 18.3165 14.4894 18.2663C14.4486 18.2162 14.3887 18.1872 14.3257 18.1872H12.1654C12.1952 18.0773 12.2116 17.9615 12.2116 17.8416C12.2116 17.7218 12.1953 17.6059 12.1654 17.496H14.3256C14.3885 17.496 14.4484 17.4671 14.4892 17.4169C14.53 17.3667 14.5477 17.3003 14.5376 17.2353H14.5376ZM10.9999 14.5431C9.53075 14.5431 8.28062 15.5811 7.93687 17.0468H10.0572C10.2795 16.7591 10.6194 16.5747 10.9998 16.5747C11.3803 16.5747 11.7201 16.7591 11.9425 17.0468H14.0628C13.719 15.5811 12.4689 14.5431 10.9998 14.5431H10.9999Z" fill="white"/>
</svg>
