<svg width="8" height="8" viewBox="0 0 8 8" fill="none" xmlns="http://www.w3.org/2000/svg">
<g clip-path="url(#clip0_22_5225)">
<path d="M5.42529 4.70646L4.30987 3.86989V2.1658C4.30987 1.99446 4.17137 1.85596 4.00003 1.85596C3.82869 1.85596 3.69019 1.99446 3.69019 2.1658V4.02483C3.69019 4.12243 3.73604 4.21446 3.81412 4.27271L5.05347 5.20222C5.10923 5.24405 5.17431 5.26419 5.23906 5.26419C5.33356 5.26419 5.42651 5.22174 5.48725 5.13994C5.59014 5.00329 5.56225 4.80902 5.42529 4.70646Z" fill="white"/>
<path d="M4 0C1.79427 0 0 1.79427 0 4C0 6.20573 1.79427 8 4 8C6.20573 8 8 6.20573 8 4C8 1.79427 6.20573 0 4 0ZM4 7.38033C2.13633 7.38033 0.619672 5.86367 0.619672 4C0.619672 2.13633 2.13633 0.619672 4 0.619672C5.86398 0.619672 7.38033 2.13633 7.38033 4C7.38033 5.86367 5.86367 7.38033 4 7.38033Z" fill="white"/>
</g>
<defs>
<clipPath id="clip0_22_5225">
<rect width="8" height="8" fill="white"/>
</clipPath>
</defs>
</svg>
