<svg width="8" height="8" viewBox="0 0 8 8" fill="none" xmlns="http://www.w3.org/2000/svg">
<g clip-path="url(#clip0_13_4839)">
<path d="M5.42529 4.7064L4.30987 3.86983V2.16574C4.30987 1.9944 4.17137 1.8559 4.00003 1.8559C3.82869 1.8559 3.69019 1.9944 3.69019 2.16574V4.02477C3.69019 4.12236 3.73604 4.2144 3.81412 4.27265L5.05347 5.20216C5.10923 5.24399 5.17431 5.26413 5.23906 5.26413C5.33356 5.26413 5.42651 5.22168 5.48725 5.13988C5.59014 5.00322 5.56225 4.80896 5.42529 4.7064Z" fill="white"/>
<path d="M4 0C1.79427 0 0 1.79427 0 4C0 6.20573 1.79427 8 4 8C6.20573 8 8 6.20573 8 4C8 1.79427 6.20573 0 4 0ZM4 7.38033C2.13633 7.38033 0.619672 5.86367 0.619672 4C0.619672 2.13633 2.13633 0.619672 4 0.619672C5.86398 0.619672 7.38033 2.13633 7.38033 4C7.38033 5.86367 5.86367 7.38033 4 7.38033Z" fill="white"/>
</g>
<defs>
<clipPath id="clip0_13_4839">
<rect width="8" height="8" fill="white"/>
</clipPath>
</defs>
</svg>
