<svg width="6" height="6" viewBox="0 0 6 6" fill="none" xmlns="http://www.w3.org/2000/svg">
<g clip-path="url(#clip0_11_3235)">
<path d="M4.06891 3.52972L3.23234 2.9023V1.62423C3.23234 1.49572 3.12847 1.39185 2.99996 1.39185C2.87145 1.39185 2.76758 1.49572 2.76758 1.62423V3.0185C2.76758 3.0917 2.80197 3.16072 2.86053 3.20441L3.79004 3.90154C3.83186 3.93292 3.88067 3.94802 3.92923 3.94802C4.00011 3.94802 4.06982 3.91618 4.11537 3.85483C4.19254 3.75234 4.17163 3.60664 4.06891 3.52972Z" fill="white"/>
<path d="M3 0C1.3457 0 0 1.3457 0 3C0 4.6543 1.3457 6 3 6C4.6543 6 6 4.6543 6 3C6 1.3457 4.6543 0 3 0ZM3 5.53525C1.60225 5.53525 0.464754 4.39775 0.464754 3C0.464754 1.60225 1.60225 0.464754 3 0.464754C4.39799 0.464754 5.53525 1.60225 5.53525 3C5.53525 4.39775 4.39775 5.53525 3 5.53525Z" fill="white"/>
</g>
<defs>
<clipPath id="clip0_11_3235">
<rect width="6" height="6" fill="white"/>
</clipPath>
</defs>
</svg>
