<svg width="6" height="6" viewBox="0 0 6 6" fill="none" xmlns="http://www.w3.org/2000/svg">
<g clip-path="url(#clip0_12_4374)">
<path d="M4.06891 3.52984L3.23234 2.90242V1.62435C3.23234 1.49584 3.12847 1.39197 2.99996 1.39197C2.87145 1.39197 2.76758 1.49584 2.76758 1.62435V3.01862C2.76758 3.09182 2.80197 3.16084 2.86053 3.20453L3.79004 3.90167C3.83186 3.93304 3.88067 3.94814 3.92923 3.94814C4.00011 3.94814 4.06982 3.9163 4.11537 3.85496C4.19254 3.75246 4.17163 3.60676 4.06891 3.52984Z" fill="white"/>
<path d="M3 0C1.3457 0 0 1.3457 0 3C0 4.6543 1.3457 6 3 6C4.6543 6 6 4.6543 6 3C6 1.3457 4.6543 0 3 0ZM3 5.53525C1.60225 5.53525 0.464754 4.39775 0.464754 3C0.464754 1.60225 1.60225 0.464754 3 0.464754C4.39799 0.464754 5.53525 1.60225 5.53525 3C5.53525 4.39775 4.39775 5.53525 3 5.53525Z" fill="white"/>
</g>
<defs>
<clipPath id="clip0_12_4374">
<rect width="6" height="6" fill="white"/>
</clipPath>
</defs>
</svg>
