<svg width="14" height="14" viewBox="0 0 14 14" fill="none" xmlns="http://www.w3.org/2000/svg">
<path d="M13.4238 4.17978C13.3628 4.17978 13.3003 4.18847 13.2378 4.20573L12.5313 4.40037L11.7977 2.61318C11.5899 2.10683 10.9754 1.69495 10.4281 1.69495H3.56199C3.01463 1.69495 2.40025 2.10683 2.19247 2.61318L1.45976 4.39793L0.76211 4.20573C0.699732 4.18853 0.637116 4.17978 0.576225 4.17978C0.242371 4.17978 0 4.43483 0 4.7863V5.20289C0 5.61317 0.333736 5.94691 0.744016 5.94691H0.823893L0.705506 6.23535C0.512419 6.7058 0.355342 7.50214 0.355342 8.01063V11.5611C0.355342 11.9714 0.689137 12.3051 1.09936 12.3051H2.0711C2.48138 12.3051 2.81512 11.9714 2.81512 11.5611V10.6744H11.1751V11.5611C11.1751 11.9714 11.5089 12.3051 11.9191 12.3051H12.8908C13.3011 12.3051 13.6348 11.9714 13.6348 11.5611V8.01063C13.6348 7.5022 13.4778 6.7058 13.2846 6.23535L13.1662 5.94691H13.256C13.6662 5.94691 14 5.61317 14 5.20289V4.7863C14 4.43483 13.7577 4.17978 13.4238 4.17978ZM1.99331 5.54276L3.10308 2.83948C3.22742 2.53664 3.59699 2.28885 3.92436 2.28885H10.0659C10.3932 2.28885 10.7628 2.53664 10.8871 2.83948L11.9969 5.54276C12.1212 5.8456 11.9551 6.09339 11.6277 6.09339H2.36252C2.03515 6.09339 1.86903 5.8456 1.99331 5.54276ZM4.47076 8.96202C4.47076 9.1257 4.33684 9.25962 4.17316 9.25962H2.06491C1.90123 9.25962 1.76731 9.1257 1.76731 8.96202V7.95022C1.76731 7.78653 1.90123 7.65261 2.06491 7.65261H4.17316C4.33684 7.65261 4.47076 7.78653 4.47076 7.95022V8.96202ZM12.2029 8.96202C12.2029 9.1257 12.069 9.25962 11.9053 9.25962H9.79714C9.63346 9.25962 9.49954 9.1257 9.49954 8.96202V7.95022C9.49954 7.78653 9.63346 7.65261 9.79714 7.65261H11.9053C12.069 7.65261 12.2029 7.78653 12.2029 7.95022V8.96202Z" fill="white"/>
</svg>
