<svg width="10" height="10" viewBox="0 0 10 10" fill="none" xmlns="http://www.w3.org/2000/svg">
<g clip-path="url(#clip0_12_4425)">
<path d="M4.99453 9.98919C7.74997 9.98919 9.98369 7.75546 9.98369 5.00002C9.98369 2.24459 7.74997 0.0108643 4.99453 0.0108643C2.23909 0.0108643 0.00537109 2.24459 0.00537109 5.00002C0.00537109 7.75546 2.23909 9.98919 4.99453 9.98919Z" fill="#40A459"/>
<path d="M4.99453 0.0108643C4.95656 0.0108643 4.91879 0.0114502 4.88102 0.01229C4.87141 0.0125049 4.86182 0.0127197 4.85223 0.0130127C4.81623 0.0140088 4.78031 0.0153369 4.74453 0.0170947C4.73527 0.0175439 4.72607 0.0181885 4.71684 0.0186768C4.68961 0.0201807 4.66244 0.0218994 4.63531 0.023833C4.62166 0.0248096 4.60803 0.0257471 4.59441 0.0268213C4.56297 0.0293213 4.53158 0.0320947 4.50027 0.0351807C4.48408 0.0367822 4.46797 0.0385596 4.45186 0.0402979C4.4325 0.0424072 4.41318 0.0446143 4.39389 0.0469385C4.37717 0.0489502 4.36041 0.0508838 4.34375 0.0530518C6.79168 0.371938 8.68215 2.46512 8.68215 4.99997C8.68215 7.53481 6.7917 9.62801 4.34377 9.9469C4.36045 9.94907 4.37717 9.95102 4.39391 9.95301C4.41318 9.95534 4.43252 9.95754 4.45188 9.95965C4.46801 9.96141 4.48414 9.96319 4.50029 9.96477C4.5316 9.96786 4.56297 9.97063 4.59443 9.97313C4.60803 9.97422 4.62168 9.97516 4.63533 9.97612C4.66244 9.97805 4.68961 9.97979 4.71686 9.98127C4.72609 9.9818 4.73531 9.98241 4.74455 9.98286C4.78035 9.98461 4.81627 9.98594 4.85225 9.98694C4.86184 9.98721 4.87143 9.98745 4.88104 9.98766C4.91877 9.9885 4.95658 9.98909 4.99455 9.98909C7.75 9.98909 9.98371 7.75536 9.98371 4.99993C9.98371 2.2445 7.74998 0.0108643 4.99453 0.0108643Z" fill="#378B4E"/>
<path d="M4.34375 4.56612L6.42506 3.37175C6.42506 3.37175 8.7018 3.85669 9.22727 2.89786L9.39299 2.59546L9.53711 2.90874C9.83635 3.55921 9.99453 4.28235 9.99453 4.99997C9.99453 6.65409 9.1752 8.19983 7.80279 9.13479L7.66119 9.23128L4.34375 4.56612Z" fill="#898790"/>
<path d="M9.98365 4.99996C9.98365 4.13779 9.76494 3.3267 9.37998 2.61914L9.22725 2.89783C9.04268 3.23465 8.79975 3.57904 8.55764 3.88887C8.63893 4.24619 8.68213 4.61803 8.68213 4.99996C8.68213 6.39326 8.11088 7.65297 7.18994 8.55809L7.6558 9.23516C9.05539 8.35148 9.98365 6.77754 9.98365 4.99996Z" fill="#7A797F"/>
<path d="M4.9946 10C3.28649 10 1.71315 9.13905 0.785928 7.69694L0.69751 7.55944L3.47616 5.21692L6.67421 9.71149L6.47042 9.7776C5.99366 9.92518 5.49714 10 4.9946 10Z" fill="#3D9AE3"/>
<path d="M6.69441 9.70364L6.35619 9.21936C5.75914 9.59696 5.07445 9.86223 4.3418 9.95766C4.5548 9.9854 4.77402 9.98915 4.99461 9.98915C5.5893 9.98915 6.16555 9.89452 6.69441 9.70364Z" fill="#1D81CE"/>
<path d="M3.47607 5.21692L4.34375 4.56616L7.67979 9.22003L7.51764 9.31519C7.28855 9.44964 7.04746 9.56638 6.80104 9.66218L6.6741 9.71153L3.47607 5.21692Z" fill="white"/>
<path d="M6.67418 9.71147C7.02965 9.585 7.3667 9.41959 7.67984 9.21998L7.19908 8.54932C6.93746 8.80775 6.64736 9.03744 6.33398 9.23336L6.67418 9.71147Z" fill="#E0E0E3"/>
<path d="M0.612705 7.40603C0.475791 7.15764 0.359502 6.89602 0.26708 6.62844L0.22583 6.47104L6.07917 2.39697L6.94685 3.04773L0.69751 7.55943L0.612705 7.40603Z" fill="#FFCE00"/>
<path d="M7.4723 4.88703C7.1654 4.56652 5.63452 2.9192 5.63452 1.96312C5.63452 0.880645 6.51519 0 7.59765 0C8.68011 0 9.56077 0.880645 9.56077 1.96312C9.56077 2.91855 8.02987 4.56639 7.72298 4.88703C7.65468 4.9584 7.54062 4.95842 7.4723 4.88703Z" fill="#CD2900"/>
<path d="M7.59763 2.62471C7.1132 2.62471 6.71912 2.23061 6.71912 1.74619C6.71912 1.26178 7.11322 0.867676 7.59763 0.867676C8.08207 0.867676 8.47615 1.26178 8.47615 1.74619C8.47615 2.23061 8.08207 2.62471 7.59763 2.62471Z" fill="#891D00"/>
<path d="M2.82531 3.6442C3.39344 3.6442 3.85568 3.18197 3.85568 2.61383C3.85568 2.52398 3.78285 2.45113 3.69299 2.45113H3.04223C2.95238 2.45113 2.87953 2.52396 2.87953 2.61383C2.87953 2.70367 2.95236 2.77652 3.04223 2.77652H3.51133C3.43771 3.08709 3.15805 3.31883 2.82529 3.31883C2.43658 3.31883 2.12031 3.00256 2.12031 2.61385C2.12031 2.22514 2.43658 1.90887 2.82529 1.90887C2.99717 1.90887 3.1627 1.97141 3.29141 2.08494C3.35883 2.14439 3.46162 2.13793 3.52104 2.07057C3.58047 2.00318 3.57402 1.90037 3.50666 1.84094C3.31846 1.67492 3.07648 1.5835 2.82529 1.5835C2.25717 1.5835 1.79492 2.04572 1.79492 2.61387C1.79492 3.18201 2.25717 3.6442 2.82531 3.6442Z" fill="white"/>
</g>
<defs>
<clipPath id="clip0_12_4425">
<rect width="10" height="10" fill="white"/>
</clipPath>
</defs>
</svg>
