<svg width="10" height="10" viewBox="0 0 10 10" fill="none" xmlns="http://www.w3.org/2000/svg">
<g clip-path="url(#clip0_11_3451)">
<path d="M4.99459 9.98906C7.75003 9.98906 9.98375 7.75534 9.98375 4.9999C9.98375 2.24447 7.75003 0.0107422 4.99459 0.0107422C2.23916 0.0107422 0.00543213 2.24447 0.00543213 4.9999C0.00543213 7.75534 2.23916 9.98906 4.99459 9.98906Z" fill="#40A459"/>
<path d="M4.99459 0.0107422C4.95662 0.0107422 4.91885 0.0113281 4.88108 0.012168C4.87147 0.0123828 4.86188 0.0125977 4.85229 0.0128906C4.81629 0.0138867 4.78037 0.0152148 4.74459 0.0169727C4.73533 0.0174219 4.72614 0.0180664 4.7169 0.0185547C4.68967 0.0200586 4.6625 0.0217773 4.63537 0.0237109C4.62172 0.0246875 4.60809 0.025625 4.59448 0.0266992C4.56303 0.0291992 4.53164 0.0319727 4.50033 0.0350586C4.48414 0.0366602 4.46803 0.0384375 4.45192 0.0401758C4.43256 0.0422852 4.41324 0.0444922 4.39395 0.0468164C4.37723 0.0488281 4.36047 0.0507617 4.34381 0.0529297C6.79174 0.371816 8.68221 2.465 8.68221 4.99984C8.68221 7.53469 6.79176 9.62789 4.34383 9.94678C4.36051 9.94895 4.37723 9.9509 4.39397 9.95289C4.41324 9.95521 4.43258 9.95742 4.45194 9.95953C4.46807 9.96129 4.4842 9.96307 4.50035 9.96465C4.53166 9.96773 4.56303 9.97051 4.59449 9.97301C4.60809 9.9741 4.62174 9.97504 4.63539 9.976C4.6625 9.97793 4.68967 9.97967 4.71692 9.98115C4.72616 9.98168 4.73537 9.98229 4.74461 9.98273C4.78041 9.98449 4.81633 9.98582 4.85231 9.98682C4.8619 9.98709 4.87149 9.98732 4.8811 9.98754C4.91883 9.98838 4.95664 9.98897 4.99461 9.98897C7.75006 9.98897 9.98377 7.75523 9.98377 4.9998C9.98377 2.24437 7.75004 0.0107422 4.99459 0.0107422Z" fill="#378B4E"/>
<path d="M4.34381 4.56612L6.42512 3.37175C6.42512 3.37175 8.70186 3.85669 9.22733 2.89786L9.39305 2.59546L9.53717 2.90874C9.83641 3.55921 9.99459 4.28235 9.99459 4.99997C9.99459 6.65409 9.17526 8.19983 7.80285 9.13479L7.66125 9.23128L4.34381 4.56612Z" fill="#898790"/>
<path d="M9.98371 4.99996C9.98371 4.13779 9.765 3.3267 9.38004 2.61914L9.22731 2.89783C9.04274 3.23465 8.79981 3.57904 8.5577 3.88887C8.63899 4.24619 8.68219 4.61803 8.68219 4.99996C8.68219 6.39326 8.11094 7.65297 7.19 8.55809L7.65586 9.23516C9.05545 8.35148 9.98371 6.77754 9.98371 4.99996Z" fill="#7A797F"/>
<path d="M4.9946 9.99988C3.28649 9.99988 1.71315 9.13893 0.785928 7.69682L0.69751 7.55932L3.47616 5.2168L6.67421 9.71137L6.47042 9.77748C5.99366 9.92506 5.49714 9.99988 4.9946 9.99988Z" fill="#3D9AE3"/>
<path d="M6.69435 9.70376L6.35613 9.21948C5.75908 9.59708 5.07439 9.86235 4.34174 9.95778C4.55474 9.98552 4.77396 9.98927 4.99455 9.98927C5.58924 9.98927 6.16549 9.89464 6.69435 9.70376Z" fill="#1D81CE"/>
<path d="M3.47614 5.21692L4.34381 4.56616L7.67985 9.22003L7.5177 9.31519C7.28862 9.44964 7.04752 9.56638 6.8011 9.66218L6.67416 9.71153L3.47614 5.21692Z" fill="white"/>
<path d="M6.67418 9.71147C7.02965 9.585 7.3667 9.41959 7.67984 9.21998L7.19908 8.54932C6.93746 8.80775 6.64736 9.03744 6.33398 9.23336L6.67418 9.71147Z" fill="#E0E0E3"/>
<path d="M0.612705 7.40603C0.475791 7.15764 0.359502 6.89602 0.26708 6.62844L0.22583 6.47104L6.07917 2.39697L6.94685 3.04773L0.69751 7.55943L0.612705 7.40603Z" fill="#FFCE00"/>
<path d="M7.47223 4.88703C7.16534 4.56652 5.63446 2.9192 5.63446 1.96312C5.63446 0.880645 6.51513 0 7.59759 0C8.68005 0 9.56071 0.880645 9.56071 1.96312C9.56071 2.91855 8.02981 4.56639 7.72292 4.88703C7.65462 4.9584 7.54055 4.95842 7.47223 4.88703Z" fill="#CD2900"/>
<path d="M7.59757 2.62471C7.11314 2.62471 6.71906 2.23061 6.71906 1.74619C6.71906 1.26178 7.11316 0.867676 7.59757 0.867676C8.082 0.867676 8.47609 1.26178 8.47609 1.74619C8.47609 2.23061 8.082 2.62471 7.59757 2.62471Z" fill="#891D00"/>
<path d="M2.82537 3.6442C3.3935 3.6442 3.85574 3.18197 3.85574 2.61383C3.85574 2.52398 3.78291 2.45113 3.69305 2.45113H3.04229C2.95244 2.45113 2.87959 2.52396 2.87959 2.61383C2.87959 2.70367 2.95242 2.77652 3.04229 2.77652H3.51139C3.43778 3.08709 3.15811 3.31883 2.82535 3.31883C2.43664 3.31883 2.12037 3.00256 2.12037 2.61385C2.12037 2.22514 2.43664 1.90887 2.82535 1.90887C2.99723 1.90887 3.16276 1.97141 3.29147 2.08494C3.35889 2.14439 3.46168 2.13793 3.5211 2.07057C3.58053 2.00318 3.57408 1.90037 3.50672 1.84094C3.31852 1.67492 3.07655 1.5835 2.82535 1.5835C2.25723 1.5835 1.79498 2.04572 1.79498 2.61387C1.79498 3.18201 2.25723 3.6442 2.82537 3.6442Z" fill="white"/>
</g>
<defs>
<clipPath id="clip0_11_3451">
<rect width="10" height="10" fill="white"/>
</clipPath>
</defs>
</svg>
