<svg width="44" height="44" viewBox="0 0 44 44" fill="none" xmlns="http://www.w3.org/2000/svg">
<g clip-path="url(#clip0_14_4855)">
<path d="M43.9767 13.4732C43.8453 12.7535 26.4237 3.15304 21.0303 2.78338C15.1332 2.37899 0 2.50686 0 2.50686L0.0124811 13.0076C0.953327 12.773 5.16535 13.0799 6.57673 14.315C8.26043 15.7885 10.1039 16.8533 12.1681 17.7724C14.0663 18.6173 16.8956 20.2687 17.5553 20.6414C21.4973 22.8692 21.977 23.4498 23.968 24.4956C24.2465 24.6419 24.5177 24.7115 24.7741 24.7186C24.8143 24.9485 24.8653 25.1711 24.9264 25.3832C24.5384 25.52 24.2979 25.6498 24.2979 25.6498C24.0952 25.7516 23.9417 25.9304 23.8713 26.1459C23.2356 28.0914 23.2356 29.8266 23.8713 31.7724C23.9413 31.9881 24.0952 32.1668 24.2979 32.2685C24.7585 32.4997 25.1715 32.6666 25.5593 32.7754V34.6066C25.5593 34.7194 25.6043 34.8274 25.6841 34.9072L26.0726 35.2959L25.6841 35.6845C25.6044 35.7643 25.5593 35.8723 25.5593 35.9851V36.0888C25.5593 36.2016 25.6043 36.3097 25.6841 36.3895L26.0726 36.7781L25.6841 37.1666C25.6044 37.2464 25.5593 37.3546 25.5593 37.4674V37.563C25.5593 37.6758 25.6043 37.784 25.6841 37.8637L26.0726 38.2523L25.6841 38.6408C25.6044 38.7206 25.5593 38.8288 25.5593 38.9415V40.4067C25.5593 40.5189 25.604 40.6268 25.6832 40.7067L26.36 41.387C26.44 41.4673 26.5484 41.5123 26.6616 41.5123C26.7746 41.5123 26.8834 41.4673 26.963 41.387L27.64 40.7067C27.7191 40.627 27.7637 40.5191 27.7637 40.4067V32.7753C28.152 32.6665 28.565 32.4996 29.0253 32.2683C29.2281 32.1667 29.3819 31.988 29.4524 31.7723C30.0873 29.8268 30.0873 28.0916 29.4524 26.1459C29.3819 25.9302 29.2281 25.7515 29.0255 25.6497C29.0255 25.6497 28.786 25.5205 28.3992 25.384C28.5757 24.7728 28.6659 24.0719 28.6659 23.3736C28.6659 23.0904 28.6508 22.807 28.6213 22.529C29.8162 23.156 31.0235 23.0963 31.0484 22.3653C31.0535 22.2117 31.1226 16.451 30.7084 13.9226C30.6003 13.2629 30.3144 12.4004 29.3192 11.1476C29.8247 11.3649 30.314 11.5695 30.8102 11.7536C33.6822 12.8193 38.9536 15.6262 41.1534 15.7612C42.3157 15.8327 44.2332 14.8796 43.9767 13.4732ZM23.9114 17.8788C22.2724 16.7993 20.8735 15.3693 20.2681 14.3386C19.4704 12.9797 21.7526 10.8696 23.3498 12.1634C24.6236 13.2856 25.5844 14.296 25.808 14.8075C26.1271 16.8533 26.3058 19.2338 26.3102 19.2651C26.322 19.3526 26.3375 19.4374 26.3544 19.5214C26.1755 19.5666 26.0106 19.6505 25.8595 19.7674C25.4215 19.1051 24.788 18.4562 23.9114 17.8788ZM28.1935 26.8097C28.1935 27.1556 27.5078 27.4361 26.6617 27.4361C25.8159 27.4361 25.13 27.1556 25.13 26.8097C25.13 26.6793 25.2276 26.5581 25.3943 26.4578C25.7152 26.9541 26.1391 27.2655 26.6632 27.2655C27.1867 27.2655 27.6105 26.9545 27.9314 26.459C28.0968 26.5592 28.1935 26.6797 28.1935 26.8097ZM26.6619 25.069C26.5065 25.069 26.3547 25.0778 26.2073 25.0925C26.1262 24.8372 26.0549 24.5245 26.0119 24.1534C26.5903 23.5019 26.8451 22.3638 26.4956 21.1303C26.5619 20.9987 26.6246 20.9072 26.6769 20.8552C26.8863 20.9736 27.3581 21.8352 27.3581 23.3739C27.3581 24.1006 27.2522 24.6746 27.1191 25.0926C26.9708 25.0778 26.8181 25.069 26.6619 25.069Z" fill="white"/>
</g>
<defs>
<clipPath id="clip0_14_4855">
<rect width="44" height="44" fill="white"/>
</clipPath>
</defs>
</svg>
