<svg width="44" height="44" viewBox="0 0 44 44" fill="none" xmlns="http://www.w3.org/2000/svg">
<g clip-path="url(#clip0_22_5237)">
<path d="M43.9767 13.4733C43.8453 12.7536 26.4237 3.15317 21.0303 2.7835C15.1332 2.37911 0 2.50699 0 2.50699L0.0124811 13.0078C0.953327 12.7731 5.16535 13.08 6.57673 14.3151C8.26043 15.7887 10.1039 16.8534 12.1681 17.7725C14.0663 18.6174 16.8956 20.2688 17.5553 20.6415C21.4973 22.8693 21.977 23.4499 23.968 24.4957C24.2465 24.6421 24.5177 24.7116 24.7741 24.7188C24.8143 24.9486 24.8653 25.1713 24.9264 25.3833C24.5384 25.5202 24.2979 25.65 24.2979 25.65C24.0952 25.7517 23.9417 25.9306 23.8713 26.146C23.2356 28.0915 23.2356 29.8267 23.8713 31.7725C23.9413 31.9882 24.0952 32.1669 24.2979 32.2686C24.7585 32.4998 25.1715 32.6667 25.5593 32.7755V34.6067C25.5593 34.7195 25.6043 34.8275 25.6841 34.9073L26.0726 35.296L25.6841 35.6846C25.6044 35.7644 25.5593 35.8724 25.5593 35.9852V36.0889C25.5593 36.2017 25.6043 36.3098 25.6841 36.3896L26.0726 36.7782L25.6841 37.1667C25.6044 37.2465 25.5593 37.3547 25.5593 37.4675V37.5632C25.5593 37.6759 25.6043 37.7841 25.6841 37.8638L26.0726 38.2525L25.6841 38.641C25.6044 38.7207 25.5593 38.829 25.5593 38.9416V40.4068C25.5593 40.519 25.604 40.6269 25.6832 40.7068L26.36 41.3871C26.44 41.4675 26.5484 41.5124 26.6616 41.5124C26.7746 41.5124 26.8834 41.4675 26.963 41.3871L27.64 40.7068C27.7191 40.6272 27.7637 40.5192 27.7637 40.4068V32.7754C28.152 32.6666 28.565 32.4997 29.0253 32.2685C29.2281 32.1668 29.3819 31.9881 29.4524 31.7724C30.0873 29.8269 30.0873 28.0917 29.4524 26.146C29.3819 25.9303 29.2281 25.7516 29.0255 25.6499C29.0255 25.6499 28.786 25.5206 28.3992 25.3841C28.5757 24.7729 28.6659 24.072 28.6659 23.3738C28.6659 23.0906 28.6508 22.8071 28.6213 22.5291C29.8162 23.1561 31.0235 23.0965 31.0484 22.3654C31.0535 22.2118 31.1226 16.4511 30.7084 13.9227C30.6003 13.2631 30.3144 12.4005 29.3192 11.1478C29.8247 11.365 30.314 11.5696 30.8102 11.7538C33.6822 12.8194 38.9536 15.6263 41.1534 15.7613C42.3157 15.8328 44.2332 14.8797 43.9767 13.4733ZM23.9114 17.8789C22.2724 16.7994 20.8735 15.3694 20.2681 14.3387C19.4704 12.9799 21.7526 10.8698 23.3498 12.1635C24.6236 13.2858 25.5844 14.2962 25.808 14.8077C26.1271 16.8534 26.3058 19.2339 26.3102 19.2652C26.322 19.3527 26.3375 19.4376 26.3544 19.5215C26.1755 19.5667 26.0106 19.6507 25.8595 19.7675C25.4215 19.1052 24.788 18.4563 23.9114 17.8789ZM28.1935 26.8098C28.1935 27.1558 27.5078 27.4362 26.6617 27.4362C25.8159 27.4362 25.13 27.1558 25.13 26.8098C25.13 26.6794 25.2276 26.5583 25.3943 26.458C25.7152 26.9542 26.1391 27.2656 26.6632 27.2656C27.1867 27.2656 27.6105 26.9546 27.9314 26.4591C28.0968 26.5593 28.1935 26.6798 28.1935 26.8098ZM26.6619 25.0691C26.5065 25.0691 26.3547 25.0779 26.2073 25.0926C26.1262 24.8373 26.0549 24.5246 26.0119 24.1535C26.5903 23.502 26.8451 22.3639 26.4956 21.1305C26.5619 20.9988 26.6246 20.9073 26.6769 20.8553C26.8863 20.9738 27.3581 21.8353 27.3581 23.374C27.3581 24.1007 27.2522 24.6747 27.1191 25.0927C26.9708 25.0779 26.8181 25.0691 26.6619 25.0691Z" fill="white"/>
</g>
<defs>
<clipPath id="clip0_22_5237">
<rect width="44" height="44" fill="white"/>
</clipPath>
</defs>
</svg>
