<svg width="22" height="22" viewBox="0 0 22 22" fill="none" xmlns="http://www.w3.org/2000/svg">
<g clip-path="url(#clip0_16_10544)">
<path d="M21.9884 6.7366C21.9227 6.37675 13.2118 1.57652 10.5151 1.39169C7.5666 1.18949 0 1.25343 0 1.25343L0.00624054 6.50382C0.476664 6.3865 2.58268 6.53996 3.28837 7.15749C4.13022 7.89427 5.05194 8.42665 6.08407 8.88618C7.03314 9.30866 8.44782 10.1343 8.77766 10.3207C10.7486 11.4346 10.9885 11.7249 11.984 12.2478C12.1233 12.321 12.2589 12.3557 12.3871 12.3593C12.4072 12.4743 12.4326 12.5856 12.4632 12.6916C12.2692 12.76 12.149 12.8249 12.149 12.8249C12.0476 12.8758 11.9708 12.9652 11.9357 13.073C11.6178 14.0457 11.6178 14.9133 11.9357 15.8862C11.9707 15.994 12.0476 16.0834 12.149 16.1342C12.3792 16.2498 12.5857 16.3333 12.7797 16.3877V17.3033C12.7797 17.3597 12.8021 17.4137 12.8421 17.4536L13.0363 17.648L12.8421 17.8423C12.8022 17.8821 12.7797 17.9362 12.7797 17.9925V18.0444C12.7797 18.1008 12.8021 18.1549 12.8421 18.1947L13.0363 18.389L12.8421 18.5833C12.8022 18.6232 12.7797 18.6773 12.7797 18.7337V18.7815C12.7797 18.8379 12.8021 18.892 12.8421 18.9319L13.0363 19.1262L12.8421 19.3204C12.8022 19.3603 12.7797 19.4144 12.7797 19.4708V20.2033C12.7797 20.2595 12.802 20.3134 12.8416 20.3533L13.18 20.6935C13.22 20.7337 13.2742 20.7561 13.3308 20.7561C13.3873 20.7561 13.4417 20.7337 13.4815 20.6935L13.82 20.3533C13.8596 20.3135 13.8819 20.2596 13.8819 20.2033V16.3876C14.076 16.3332 14.2825 16.2498 14.5127 16.1342C14.614 16.0833 14.691 15.994 14.7262 15.8861C15.0437 14.9134 15.0437 14.0458 14.7262 13.073C14.691 12.9651 14.614 12.8758 14.5128 12.8249C14.5128 12.8249 14.393 12.7602 14.1996 12.692C14.2878 12.3864 14.3329 12.0359 14.3329 11.6868C14.3329 11.5452 14.3254 11.4035 14.3106 11.2645C14.9081 11.578 15.5118 11.5482 15.5242 11.1826C15.5267 11.1058 15.5613 8.22548 15.3542 6.96131C15.3002 6.63147 15.1572 6.20019 14.6596 5.57381C14.9123 5.68246 15.157 5.78474 15.4051 5.87682C16.8411 6.40965 19.4768 7.81309 20.5767 7.8806C21.1579 7.91634 22.1166 7.43979 21.9884 6.7366ZM11.9557 8.93939C11.1362 8.39964 10.4367 7.68465 10.1341 7.16929C9.73519 6.48987 10.8763 5.43482 11.6749 6.08168C12.3118 6.64282 12.7922 7.14802 12.904 7.40377C13.0635 8.42665 13.1529 9.61689 13.1551 9.63255C13.161 9.67629 13.1687 9.71872 13.1772 9.7607C13.0878 9.78328 13.0053 9.82527 12.9298 9.8837C12.7107 9.55256 12.394 9.2281 11.9557 8.93939ZM14.0968 13.4048C14.0968 13.5778 13.7539 13.7181 13.3309 13.7181C12.9079 13.7181 12.565 13.5778 12.565 13.4048C12.565 13.3397 12.6138 13.2791 12.6972 13.2289C12.8576 13.4771 13.0696 13.6327 13.3316 13.6327C13.5934 13.6327 13.8053 13.4772 13.9657 13.2295C14.0484 13.2796 14.0968 13.3398 14.0968 13.4048ZM13.3309 12.5345C13.2533 12.5345 13.1774 12.5389 13.1037 12.5463C13.0631 12.4186 13.0275 12.2623 13.006 12.0767C13.2951 11.7509 13.4225 11.1819 13.2478 10.5652C13.2809 10.4994 13.3123 10.4536 13.3385 10.4276C13.4431 10.4868 13.679 10.9176 13.679 11.6869C13.679 12.0503 13.6261 12.3373 13.5596 12.5463C13.4854 12.5389 13.409 12.5345 13.3309 12.5345Z" fill="white"/>
</g>
<defs>
<clipPath id="clip0_16_10544">
<rect width="22" height="22" fill="white"/>
</clipPath>
</defs>
</svg>
