<svg width="22" height="22" viewBox="0 0 22 22" fill="none" xmlns="http://www.w3.org/2000/svg">
<g clip-path="url(#clip0_22_5240)">
<path d="M21.9884 6.73666C21.9227 6.37681 13.2118 1.57658 10.5151 1.39175C7.5666 1.18956 0 1.25349 0 1.25349L0.00624054 6.50389C0.476664 6.38656 2.58268 6.54002 3.28837 7.15755C4.13022 7.89434 5.05194 8.42671 6.08407 8.88624C7.03314 9.30872 8.44782 10.1344 8.77766 10.3208C10.7486 11.4346 10.9885 11.7249 11.984 12.2478C12.1233 12.321 12.2589 12.3558 12.3871 12.3594C12.4072 12.4743 12.4326 12.5856 12.4632 12.6917C12.2692 12.7601 12.149 12.825 12.149 12.825C12.0476 12.8759 11.9708 12.9653 11.9357 13.073C11.6178 14.0457 11.6178 14.9134 11.9357 15.8863C11.9707 15.9941 12.0476 16.0835 12.149 16.1343C12.3792 16.2499 12.5857 16.3334 12.7797 16.3878V17.3034C12.7797 17.3598 12.8021 17.4138 12.8421 17.4536L13.0363 17.648L12.8421 17.8423C12.8022 17.8822 12.7797 17.9362 12.7797 17.9926V18.0445C12.7797 18.1009 12.8021 18.1549 12.8421 18.1948L13.0363 18.3891L12.8421 18.5834C12.8022 18.6232 12.7797 18.6774 12.7797 18.7338V18.7816C12.7797 18.838 12.8021 18.892 12.8421 18.9319L13.0363 19.1262L12.8421 19.3205C12.8022 19.3604 12.7797 19.4145 12.7797 19.4708V20.2034C12.7797 20.2595 12.802 20.3135 12.8416 20.3534L13.18 20.6936C13.22 20.7337 13.2742 20.7562 13.3308 20.7562C13.3873 20.7562 13.4417 20.7337 13.4815 20.6936L13.82 20.3534C13.8596 20.3136 13.8819 20.2596 13.8819 20.2034V16.3877C14.076 16.3333 14.2825 16.2499 14.5127 16.1342C14.614 16.0834 14.691 15.994 14.7262 15.8862C15.0437 14.9135 15.0437 14.0459 14.7262 13.073C14.691 12.9652 14.614 12.8758 14.5128 12.8249C14.5128 12.8249 14.393 12.7603 14.1996 12.6921C14.2878 12.3864 14.3329 12.036 14.3329 11.6869C14.3329 11.5453 14.3254 11.4036 14.3106 11.2646C14.9081 11.5781 15.5118 11.5482 15.5242 11.1827C15.5267 11.1059 15.5613 8.22554 15.3542 6.96137C15.3002 6.63153 15.1572 6.20026 14.6596 5.57388C14.9123 5.68252 15.157 5.78481 15.4051 5.87688C16.8411 6.40971 19.4768 7.81315 20.5767 7.88066C21.1579 7.9164 22.1166 7.43985 21.9884 6.73666ZM11.9557 8.93946C11.1362 8.3997 10.4367 7.68471 10.1341 7.16935C9.73519 6.48993 10.8763 5.43488 11.6749 6.08174C12.3118 6.64288 12.7922 7.14808 12.904 7.40383C13.0635 8.42671 13.1529 9.61695 13.1551 9.63261C13.161 9.67635 13.1687 9.71878 13.1772 9.76077C13.0878 9.78335 13.0053 9.82533 12.9298 9.88376C12.7107 9.55262 12.394 9.22817 11.9557 8.93946ZM14.0968 13.4049C14.0968 13.5779 13.7539 13.7181 13.3309 13.7181C12.9079 13.7181 12.565 13.5779 12.565 13.4049C12.565 13.3397 12.6138 13.2791 12.6972 13.229C12.8576 13.4771 13.0696 13.6328 13.3316 13.6328C13.5934 13.6328 13.8053 13.4773 13.9657 13.2295C14.0484 13.2796 14.0968 13.3399 14.0968 13.4049ZM13.3309 12.5346C13.2533 12.5346 13.1774 12.5389 13.1037 12.5463C13.0631 12.4187 13.0275 12.2623 13.006 12.0767C13.2951 11.751 13.4225 11.182 13.2478 10.5652C13.2809 10.4994 13.3123 10.4536 13.3385 10.4277C13.4431 10.4869 13.679 10.9176 13.679 11.687C13.679 12.0504 13.6261 12.3374 13.5596 12.5464C13.4854 12.5389 13.409 12.5346 13.3309 12.5346Z" fill="white"/>
</g>
<defs>
<clipPath id="clip0_22_5240">
<rect width="22" height="22" fill="white"/>
</clipPath>
</defs>
</svg>
