<svg width="25" height="24" viewBox="0 0 25 24" fill="none" xmlns="http://www.w3.org/2000/svg">
<g clip-path="url(#clip0_201_2686)">
<path d="M22.75 3H7.75C7.06 3 6.52 3.35 6.16 3.88L0.75 12L6.16 20.11C6.52 20.64 7.06 21 7.75 21H22.75C23.85 21 24.75 20.1 24.75 19V5C24.75 3.9 23.85 3 22.75 3ZM22.75 19H7.82L3.15 12L7.81 5H22.75V19ZM11.16 17L14.75 13.41L18.34 17L19.75 15.59L16.16 12L19.75 8.41L18.34 7L14.75 10.59L11.16 7L9.75 8.41L13.34 12L9.75 15.59L11.16 17Z" fill="#A5A9AC"/>
</g>
<defs>
<clipPath id="clip0_201_2686">
<rect width="24" height="24" fill="white" transform="translate(0.75)"/>
</clipPath>
</defs>
</svg>
