<svg width="21" height="24" viewBox="0 0 21 24" fill="none" xmlns="http://www.w3.org/2000/svg">
<g clip-path="url(#clip0_201_6275)">
<path d="M10.1329 2C4.61285 2 0.142853 6.48 0.142853 12C0.142853 17.52 4.61285 22 10.1329 22C15.6629 22 20.1429 17.52 20.1429 12C20.1429 6.48 15.6629 2 10.1329 2ZM17.0629 8H14.1129C13.7929 6.75 13.3329 5.55 12.7329 4.44C14.5729 5.07 16.1029 6.35 17.0629 8ZM10.1429 4.04C10.9729 5.24 11.6229 6.57 12.0529 8H8.23285C8.66285 6.57 9.31285 5.24 10.1429 4.04ZM2.40285 14C2.24285 13.36 2.14285 12.69 2.14285 12C2.14285 11.31 2.24285 10.64 2.40285 10H5.78285C5.70285 10.66 5.64285 11.32 5.64285 12C5.64285 12.68 5.70285 13.34 5.78285 14H2.40285ZM3.22285 16H6.17285C6.49285 17.25 6.95285 18.45 7.55285 19.56C5.71285 18.93 4.18285 17.66 3.22285 16ZM6.17285 8H3.22285C4.18285 6.34 5.71285 5.07 7.55285 4.44C6.95285 5.55 6.49285 6.75 6.17285 8ZM10.1429 19.96C9.31285 18.76 8.66285 17.43 8.23285 16H12.0529C11.6229 17.43 10.9729 18.76 10.1429 19.96ZM12.4829 14H7.80285C7.71285 13.34 7.64285 12.68 7.64285 12C7.64285 11.32 7.71285 10.65 7.80285 10H12.4829C12.5729 10.65 12.6429 11.32 12.6429 12C12.6429 12.68 12.5729 13.34 12.4829 14ZM12.7329 19.56C13.3329 18.45 13.7929 17.25 14.1129 16H17.0629C16.1029 17.65 14.5729 18.93 12.7329 19.56ZM14.5029 14C14.5829 13.34 14.6429 12.68 14.6429 12C14.6429 11.32 14.5829 10.66 14.5029 10H17.8829C18.0429 10.64 18.1429 11.31 18.1429 12C18.1429 12.69 18.0429 13.36 17.8829 14H14.5029Z" fill="#4C4C4C"/>
</g>
<defs>
<clipPath id="clip0_201_6275">
<rect width="20.5714" height="24" fill="white" transform="translate(0.142853)"/>
</clipPath>
</defs>
</svg>
