<svg width="12" height="12" viewBox="0 0 12 12" fill="none" xmlns="http://www.w3.org/2000/svg">
<path d="M8.021 7.4585C8.1155 7.301 8.327 7.2515 8.4845 7.3505C8.642 7.4495 8.6915 7.6565 8.5925 7.814C8.1335 8.5385 7.355 8.975 6.5 8.975C5.645 8.975 4.8665 8.543 4.4075 7.8095C4.3085 7.652 4.358 7.445 4.5155 7.346C4.673 7.247 4.88 7.2965 4.979 7.454C5.312 7.985 5.879 8.3 6.5 8.3C7.121 8.3 7.688 7.985 8.021 7.4585Z" fill="#3D3D3F"/>
<path d="M4.925 6.05C5.29779 6.05 5.6 5.74779 5.6 5.375C5.6 5.00221 5.29779 4.7 4.925 4.7C4.55221 4.7 4.25 5.00221 4.25 5.375C4.25 5.74779 4.55221 6.05 4.925 6.05Z" fill="#3D3D3F"/>
<path d="M8.075 6.05C8.44779 6.05 8.75 5.74779 8.75 5.375C8.75 5.00221 8.44779 4.7 8.075 4.7C7.70221 4.7 7.4 5.00221 7.4 5.375C7.4 5.74779 7.70221 6.05 8.075 6.05Z" fill="#3D3D3F"/>
<path fill-rule="evenodd" clip-rule="evenodd" d="M2 6.5C2 4.016 4.0115 2 6.4955 2C8.984 2 11 4.016 11 6.5C11 8.984 8.984 11 6.4955 11C4.0115 11 2 8.984 2 6.5ZM2.9 6.5C2.9 8.489 4.511 10.1 6.5 10.1C8.489 10.1 10.1 8.489 10.1 6.5C10.1 4.511 8.489 2.9 6.5 2.9C4.511 2.9 2.9 4.511 2.9 6.5Z" fill="#3D3D3F"/>
</svg>
