<svg width="47" height="45" viewBox="0 0 47 45" fill="none" xmlns="http://www.w3.org/2000/svg">
<path d="M23.4999 0C14.1141 0 6.47827 7.31092 6.47827 16.2972C6.47827 27.4495 21.711 43.8217 22.3595 44.5132C22.9687 45.1628 24.0322 45.1616 24.6403 44.5132C25.2888 43.8217 40.5215 27.4495 40.5215 16.2972C40.5213 7.31092 32.8856 0 23.4999 0ZM23.4999 24.4968C18.7777 24.4968 14.936 20.8185 14.936 16.2972C14.936 11.7759 18.7778 8.09772 23.4999 8.09772C28.222 8.09772 32.0637 11.776 32.0637 16.2973C32.0637 20.8186 28.222 24.4968 23.4999 24.4968Z" fill="#00F6DF"/>
</svg>
