<svg width="47" height="45" viewBox="0 0 47 45" fill="none" xmlns="http://www.w3.org/2000/svg">
<path d="M23.5 0C14.1142 0 6.47839 7.31092 6.47839 16.2972C6.47839 27.4495 21.7111 43.8217 22.3596 44.5132C22.9688 45.1628 24.0323 45.1616 24.6404 44.5132C25.2889 43.8217 40.5216 27.4495 40.5216 16.2972C40.5215 7.31092 32.8857 0 23.5 0ZM23.5 24.4968C18.7778 24.4968 14.9361 20.8185 14.9361 16.2972C14.9361 11.7759 18.7779 8.09772 23.5 8.09772C28.2221 8.09772 32.0638 11.776 32.0638 16.2973C32.0638 20.8186 28.2221 24.4968 23.5 24.4968Z" fill="#00F6DF"/>
</svg>
