<svg width="24" height="24" viewBox="0 0 24 24" fill="none" xmlns="http://www.w3.org/2000/svg">
<g clip-path="url(#clip0_16_9087)">
<path d="M1.50001 21H22.5C23.3285 21 24 20.3284 24 19.5C24 18.6716 23.3285 18 22.5 18H1.49996C0.671549 18 -5.14984e-05 18.6716 -5.14984e-05 19.5C0 20.3284 0.671549 21 1.50001 21Z" fill="white"/>
<path d="M1.50001 13.5H22.5C23.3285 13.5 24 12.8284 24 12C24 11.1716 23.3285 10.5 22.5 10.5H1.49996C0.671549 10.5 -5.14984e-05 11.1715 -5.14984e-05 12C-5.14984e-05 12.8285 0.671549 13.5 1.50001 13.5Z" fill="white"/>
<path d="M1.50001 6.00002H22.5C23.3285 6.00002 24 5.32847 24 4.50001C24 3.67155 23.3285 3 22.5 3H1.49996C0.671549 3 -5.14984e-05 3.67155 -5.14984e-05 4.50001C-5.14984e-05 5.32847 0.671549 6.00002 1.50001 6.00002Z" fill="white"/>
</g>
<defs>
<clipPath id="clip0_16_9087">
<rect width="24" height="24" fill="white" transform="matrix(-1 0 0 1 24 0)"/>
</clipPath>
</defs>
</svg>
