<svg width="53" height="52" viewBox="0 0 53 52" fill="none" xmlns="http://www.w3.org/2000/svg">
<g clip-path="url(#clip0_15_5690)">
<path d="M22.6707 37.1873L24.3265 45.5275C24.4422 46.1101 24.9187 46.5519 25.509 46.6254C25.6564 46.6428 25.8027 46.6362 25.943 46.6084C26.3638 46.5248 26.7309 46.2463 26.9199 45.8425L30.4803 38.2348L22.6707 37.1873Z" fill="url(#paint0_linear_15_5690)"/>
<path d="M43.2891 0.434686C42.8173 0.223689 42.2664 0.29195 41.8636 0.616775L5.5984 29.7791C5.16969 30.124 4.98876 30.6908 5.13508 31.2206C5.28354 31.7519 5.73279 32.1412 6.27632 32.2145L18.2876 33.826L38.1753 8.58815L24.0731 34.6006L44.2032 37.301C44.3527 37.3199 44.5052 37.3158 44.6526 37.2865C44.8972 37.238 45.1267 37.1232 45.315 36.9513C45.6153 36.6749 45.7776 36.2781 45.7588 35.8725L44.0989 1.6234C44.0727 1.10526 43.7612 0.64748 43.2891 0.434686Z" fill="url(#paint1_linear_15_5690)"/>
</g>
<defs>
<linearGradient id="paint0_linear_15_5690" x1="26.3274" y1="36.4612" x2="28.251" y2="46.1501" gradientUnits="userSpaceOnUse">
<stop stop-color="#660FF4"/>
<stop offset="1" stop-color="#C2109A"/>
</linearGradient>
<linearGradient id="paint1_linear_15_5690" x1="22.2271" y1="4.35642" x2="29.3676" y2="40.3212" gradientUnits="userSpaceOnUse">
<stop stop-color="#660FF4"/>
<stop offset="1" stop-color="#C2109A"/>
</linearGradient>
<clipPath id="clip0_15_5690">
<rect width="44" height="44" fill="white" transform="translate(0.648193 8.64075) rotate(-11.2296)"/>
</clipPath>
</defs>
</svg>
