<svg width="36" height="36" viewBox="0 0 36 36" fill="none" xmlns="http://www.w3.org/2000/svg">
<g clip-path="url(#clip0_14_4848)">
<path d="M36 0.5625V3.9375C36 4.24687 35.7469 4.5 35.4375 4.5H18.5625V35.4375C18.5625 35.7469 18.3094 36 18 36C17.6906 36 17.4375 35.7469 17.4375 35.4375V4.5H0.5625C0.253125 4.5 0 4.24687 0 3.9375V0.5625C0 0.253125 0.253125 0 0.5625 0H35.4375C35.7469 0 36 0.253125 36 0.5625Z" fill="white"/>
<path d="M15.75 15.1875H15.1875V11.25C15.1875 8.46 12.915 6.1875 10.125 6.1875H6.75C3.96 6.1875 1.6875 8.46 1.6875 11.25V15.1875H1.125C0.815625 15.1875 0.5625 15.4406 0.5625 15.75C0.5625 16.0594 0.815625 16.3125 1.125 16.3125H1.6875V31.5C1.6875 32.2256 1.96875 32.8838 2.42437 33.3787C2.43 33.3956 2.44125 33.4013 2.4525 33.4125C2.96438 33.9638 3.69 34.3125 4.5 34.3125H12.375C13.185 34.3125 13.9106 33.9638 14.4225 33.4125C14.4337 33.4013 14.445 33.3956 14.4506 33.3787C14.9062 32.8838 15.1875 32.2256 15.1875 31.5V16.3125H15.75C16.0594 16.3125 16.3125 16.0594 16.3125 15.75C16.3125 15.4406 16.0594 15.1875 15.75 15.1875ZM10.1419 8.9325C10.2206 8.62875 10.5244 8.44875 10.8281 8.5275C11.5538 8.71312 12.1838 9.19125 12.5606 9.84375C12.7181 10.1137 12.6225 10.4569 12.3525 10.6144C12.2681 10.665 12.1669 10.6875 12.0712 10.6875C11.88 10.6875 11.6888 10.5862 11.5875 10.4062C11.3625 10.0181 10.98 9.72563 10.5469 9.61875C10.2487 9.54 10.0631 9.23063 10.1419 8.9325ZM4.31437 9.84375C4.69125 9.19125 5.32125 8.71312 6.04688 8.5275C6.345 8.44875 6.65438 8.62875 6.73313 8.9325C6.81188 9.23063 6.62625 9.54 6.32812 9.61875C5.895 9.72563 5.5125 10.0181 5.2875 10.4062C5.18625 10.5862 4.995 10.6875 4.80375 10.6875C4.70813 10.6875 4.60687 10.665 4.5225 10.6144C4.2525 10.4569 4.15688 10.1137 4.31437 9.84375ZM8.34188 14.0625H8.53312C10.3612 14.0625 12.1556 14.5125 13.77 15.3562L12.105 17.4375H4.77L3.105 15.3562C4.71938 14.5125 6.51375 14.0625 8.34188 14.0625ZM2.8125 31.5V16.7906L3.9375 18.1969V30.2175L2.88563 31.9669C2.84063 31.8206 2.8125 31.6631 2.8125 31.5ZM12.375 33.1875H4.5C4.17937 33.1875 3.87563 33.0919 3.6225 32.9344L4.82062 30.9375H12.0544L13.2525 32.9344C12.9994 33.0919 12.6956 33.1875 12.375 33.1875ZM14.0625 31.5C14.0625 31.6631 14.0344 31.8206 13.9894 31.9669L12.9375 30.2175V18.1969L14.0625 16.7906V31.5Z" fill="white"/>
<path d="M24.5476 12.2906C24.272 12.4369 24.1707 12.78 24.3226 13.0556C24.4745 13.3312 24.812 13.4325 25.0876 13.2806C25.9145 12.8306 26.9663 12.8306 27.7932 13.2806C27.8776 13.3256 27.9676 13.3481 28.0632 13.3481C28.2601 13.3481 28.457 13.2412 28.5582 13.0556C28.7045 12.78 28.6032 12.4425 28.3332 12.2906C27.1801 11.6606 25.712 11.6606 24.5588 12.2906H24.5476Z" fill="white"/>
<path d="M29.1374 11.3794C29.3343 11.3794 29.5255 11.2725 29.6324 11.0869C29.7843 10.8169 29.683 10.4738 29.413 10.3219C28.4962 9.81564 27.4949 9.55688 26.443 9.55688C25.3912 9.55688 24.3843 9.81564 23.473 10.3219C23.203 10.4738 23.1018 10.8169 23.2537 11.0869C23.4055 11.3569 23.7487 11.4581 24.0187 11.3063C25.5149 10.4794 27.3824 10.4794 28.873 11.3063C28.9574 11.3513 29.053 11.3738 29.143 11.3738L29.1374 11.3794Z" fill="white"/>
<path d="M22.9276 9.33753C25.0651 8.1619 27.8101 8.1619 29.9476 9.33753C30.032 9.38253 30.1276 9.40503 30.2176 9.40503C30.4145 9.40503 30.6113 9.29815 30.7126 9.11253C30.8645 8.84253 30.7632 8.4994 30.4932 8.34753C28.0238 6.9919 24.857 6.9919 22.3932 8.34753C22.1232 8.4994 22.022 8.8369 22.1738 9.11253C22.3257 9.38253 22.6632 9.48378 22.9388 9.3319L22.9276 9.33753Z" fill="white"/>
<path d="M27.5625 15.75H22.5V30.375H24.75V23.625H27.5625C28.6537 23.625 29.6325 23.1863 30.3469 22.4719C31.0613 21.7575 31.5 20.7787 31.5 19.6875C31.5 17.5106 29.7394 15.75 27.5625 15.75ZM28.755 20.88C28.4512 21.1837 28.0294 21.375 27.5625 21.375H24.75V18H27.5625C28.4963 18 29.25 18.7538 29.25 19.6875C29.25 20.1544 29.0587 20.5762 28.755 20.88Z" fill="white"/>
</g>
<defs>
<clipPath id="clip0_14_4848">
<rect width="36" height="36" fill="white"/>
</clipPath>
</defs>
</svg>
