<svg width="20" height="20" viewBox="0 0 20 20" fill="none" xmlns="http://www.w3.org/2000/svg">
<path d="M10.96 1.30655C10.6414 1.26818 10.3209 1.24929 10 1.24999V1.25311C9.67915 1.25241 9.35855 1.2713 9.04 1.30968C5.85906 1.69968 3.75 4.6928 3.75 7.70968C3.75 9.65874 4.72688 11.4575 5.72469 13.1225C6.74714 14.7979 7.87504 16.4067 9.10156 17.9391C9.33 18.2287 9.64094 18.7275 10 18.75V18.7469C10.3591 18.7244 10.67 18.2256 10.8984 17.9359C12.125 16.4036 13.2529 14.7948 14.2753 13.1194C15.2731 11.4544 16.25 9.65624 16.25 7.70655C16.25 4.68968 14.1409 1.69655 10.96 1.30655ZM10 12.8125C8.94929 12.8125 7.92217 12.5009 7.04853 11.9172C6.1749 11.3334 5.49398 10.5037 5.09189 9.53299C4.6898 8.56226 4.58459 7.4941 4.78958 6.46357C4.99456 5.43305 5.50053 4.48645 6.2435 3.74348C6.98646 3.00052 7.93306 2.49455 8.96358 2.28957C9.99411 2.08458 11.0623 2.18979 12.033 2.59188C13.0037 2.99397 13.8334 3.67489 14.4172 4.54852C15.0009 5.42216 15.3125 6.44928 15.3125 7.49999C15.3125 8.90895 14.7528 10.2602 13.7565 11.2565C12.7602 12.2528 11.409 12.8125 10 12.8125Z" fill="white"/>
<path d="M10.0585 6.63H9.58972V7.27157H10.0585C10.1293 7.27543 10.2001 7.2618 10.2644 7.23188C10.3065 7.21046 10.3427 7.17902 10.3697 7.14032C10.3908 7.10808 10.4042 7.07139 10.4088 7.03313C10.4125 6.99688 10.4144 6.96875 10.4144 6.94844C10.4181 6.90516 10.4123 6.86158 10.3974 6.82077C10.3825 6.77995 10.3589 6.7429 10.3282 6.71219C10.2513 6.65277 10.1554 6.62353 10.0585 6.63Z" fill="white"/>
<path d="M11.875 4.375H8.125C7.79348 4.375 7.47554 4.5067 7.24112 4.74112C7.0067 4.97554 6.875 5.29348 6.875 5.625V9.375C6.875 9.70652 7.0067 10.0245 7.24112 10.2589C7.47554 10.4933 7.79348 10.625 8.125 10.625H11.875C12.2065 10.625 12.5245 10.4933 12.7589 10.2589C12.9933 10.0245 13.125 9.70652 13.125 9.375V5.625C13.125 5.29348 12.9933 4.97554 12.7589 4.74112C12.5245 4.5067 12.2065 4.375 11.875 4.375ZM11.0484 7.35375C10.9999 7.47772 10.9242 7.58922 10.8269 7.68C10.7295 7.76795 10.6164 7.83666 10.4934 7.8825C10.3622 7.92894 10.2239 7.95179 10.0847 7.95H9.58969V8.83875L9.375 9.04875H9.09063L8.87687 8.83875V6.165L9.09063 5.95125H10.0847C10.2239 5.9494 10.3623 5.97237 10.4934 6.01906C10.6179 6.06218 10.7317 6.13126 10.8274 6.22172C10.9231 6.31218 10.9984 6.42195 11.0484 6.54375C11.148 6.80457 11.148 7.09293 11.0484 7.35375Z" fill="white"/>
</svg>
