<svg width="18" height="18" viewBox="0 0 18 18" fill="none" xmlns="http://www.w3.org/2000/svg">
<g clip-path="url(#clip0_15_5727)">
<path d="M18 0.28125V1.96875C18 2.12344 17.8734 2.25 17.7188 2.25H9.28125V17.7188C9.28125 17.8734 9.15469 18 9 18C8.84531 18 8.71875 17.8734 8.71875 17.7188V2.25H0.28125C0.126562 2.25 0 2.12344 0 1.96875V0.28125C0 0.126562 0.126562 0 0.28125 0H17.7188C17.8734 0 18 0.126562 18 0.28125Z" fill="#777777"/>
<path d="M7.875 7.59375H7.59375V5.625C7.59375 4.23 6.4575 3.09375 5.0625 3.09375H3.375C1.98 3.09375 0.84375 4.23 0.84375 5.625V7.59375H0.5625C0.407812 7.59375 0.28125 7.72031 0.28125 7.875C0.28125 8.02969 0.407812 8.15625 0.5625 8.15625H0.84375V15.75C0.84375 16.1128 0.984375 16.4419 1.21219 16.6894C1.215 16.6978 1.22063 16.7006 1.22625 16.7063C1.48219 16.9819 1.845 17.1562 2.25 17.1562H6.1875C6.5925 17.1562 6.95531 16.9819 7.21125 16.7063C7.21687 16.7006 7.2225 16.6978 7.22531 16.6894C7.45312 16.4419 7.59375 16.1128 7.59375 15.75V8.15625H7.875C8.02969 8.15625 8.15625 8.02969 8.15625 7.875C8.15625 7.72031 8.02969 7.59375 7.875 7.59375ZM5.07094 4.46625C5.11031 4.31438 5.26219 4.22438 5.41406 4.26375C5.77688 4.35656 6.09188 4.59563 6.28031 4.92188C6.35906 5.05687 6.31125 5.22844 6.17625 5.30719C6.13406 5.3325 6.08344 5.34375 6.03562 5.34375C5.94 5.34375 5.84438 5.29312 5.79375 5.20312C5.68125 5.00906 5.49 4.86281 5.27344 4.80938C5.12437 4.77 5.03156 4.61531 5.07094 4.46625ZM2.15719 4.92188C2.34562 4.59563 2.66062 4.35656 3.02344 4.26375C3.1725 4.22438 3.32719 4.31438 3.36656 4.46625C3.40594 4.61531 3.31312 4.77 3.16406 4.80938C2.9475 4.86281 2.75625 5.00906 2.64375 5.20312C2.59312 5.29312 2.4975 5.34375 2.40188 5.34375C2.35406 5.34375 2.30344 5.3325 2.26125 5.30719C2.12625 5.22844 2.07844 5.05687 2.15719 4.92188ZM4.17094 7.03125H4.26656C5.18062 7.03125 6.07781 7.25625 6.885 7.67812L6.0525 8.71875H2.385L1.5525 7.67812C2.35969 7.25625 3.25688 7.03125 4.17094 7.03125ZM1.40625 15.75V8.39531L1.96875 9.09844V15.1088L1.44281 15.9834C1.42031 15.9103 1.40625 15.8316 1.40625 15.75ZM6.1875 16.5938H2.25C2.08969 16.5938 1.93781 16.5459 1.81125 16.4672L2.41031 15.4688H6.02719L6.62625 16.4672C6.49969 16.5459 6.34781 16.5938 6.1875 16.5938ZM7.03125 15.75C7.03125 15.8316 7.01719 15.9103 6.99469 15.9834L6.46875 15.1088V9.09844L7.03125 8.39531V15.75Z" fill="#777777"/>
<path d="M12.2738 6.14531C12.136 6.21843 12.0854 6.38999 12.1613 6.52781C12.2372 6.66562 12.406 6.71625 12.5438 6.64031C12.9572 6.41531 13.4832 6.41531 13.8966 6.64031C13.9388 6.66281 13.9838 6.67406 14.0316 6.67406C14.13 6.67406 14.2285 6.62062 14.2791 6.52781C14.3522 6.38999 14.3016 6.22125 14.1666 6.14531C13.59 5.83031 12.856 5.83031 12.2794 6.14531H12.2738Z" fill="#777777"/>
<path d="M14.5688 5.68969C14.6673 5.68969 14.7629 5.63625 14.8163 5.54344C14.8923 5.40844 14.8416 5.23688 14.7066 5.16094C14.2482 4.90782 13.7476 4.77844 13.2216 4.77844C12.6957 4.77844 12.1923 4.90782 11.7366 5.16094C11.6016 5.23688 11.551 5.40844 11.627 5.54344C11.7029 5.67844 11.8745 5.72907 12.0095 5.65313C12.7576 5.23969 13.6913 5.23969 14.4366 5.65313C14.4788 5.67563 14.5266 5.68688 14.5716 5.68688L14.5688 5.68969Z" fill="#777777"/>
<path d="M11.4638 4.66876C12.5325 4.08095 13.905 4.08095 14.9738 4.66876C15.016 4.69126 15.0638 4.70251 15.1088 4.70251C15.2072 4.70251 15.3057 4.64908 15.3563 4.55626C15.4322 4.42126 15.3816 4.2497 15.2466 4.17376C14.0119 3.49595 12.4285 3.49595 11.1966 4.17376C11.0616 4.2497 11.011 4.41845 11.0869 4.55626C11.1629 4.69126 11.3316 4.74189 11.4694 4.66595L11.4638 4.66876Z" fill="#777777"/>
<path d="M13.7812 7.875H11.25V15.1875H12.375V11.8125H13.7812C14.3269 11.8125 14.8163 11.5931 15.1734 11.2359C15.5306 10.8788 15.75 10.3894 15.75 9.84375C15.75 8.75531 14.8697 7.875 13.7812 7.875ZM14.3775 10.44C14.2256 10.5919 14.0147 10.6875 13.7812 10.6875H12.375V9H13.7812C14.2481 9 14.625 9.37688 14.625 9.84375C14.625 10.0772 14.5294 10.2881 14.3775 10.44Z" fill="#777777"/>
</g>
<defs>
<clipPath id="clip0_15_5727">
<rect width="18" height="18" fill="white"/>
</clipPath>
</defs>
</svg>
