<svg width="32" height="32" viewBox="0 0 32 32" fill="none" xmlns="http://www.w3.org/2000/svg">
<path d="M17.536 2.09053C17.0263 2.02913 16.5134 1.99891 16 2.00003V2.00503C15.4866 2.00391 14.9737 2.03413 14.464 2.09553C9.3745 2.71953 6 7.50853 6 12.3355C6 15.454 7.563 18.332 9.1595 20.996C10.7954 23.6767 12.6001 26.2507 14.5625 28.7025C14.928 29.166 15.4255 29.964 16 30V29.995C16.5745 29.959 17.072 29.161 17.4375 28.6975C19.3999 26.2457 21.2046 23.6717 22.8405 20.991C24.437 18.327 26 15.45 26 12.3305C26 7.50353 22.6255 2.71453 17.536 2.09053ZM16 20.5C14.3189 20.5 12.6755 20.0015 11.2777 19.0675C9.87983 18.1335 8.79037 16.806 8.14702 15.2528C7.50368 13.6997 7.33535 11.9906 7.66333 10.3418C7.9913 8.69292 8.80085 7.17837 9.98959 5.98962C11.1783 4.80088 12.6929 3.99133 14.3417 3.66336C15.9906 3.33538 17.6996 3.50371 19.2528 4.14705C20.806 4.7904 22.1335 5.87987 23.0675 7.27768C24.0015 8.6755 24.5 10.3189 24.5 12C24.5 14.2544 23.6045 16.4164 22.0104 18.0104C20.4163 19.6045 18.2543 20.5 16 20.5Z" fill="white"/>
<path d="M16.0935 10.608H15.3435V11.6345H16.0935C16.2069 11.6407 16.32 11.6189 16.423 11.571C16.4903 11.5367 16.5482 11.4864 16.5915 11.4245C16.6253 11.3729 16.6467 11.3142 16.654 11.253C16.66 11.195 16.663 11.15 16.663 11.1175C16.669 11.0482 16.6597 10.9785 16.6359 10.9132C16.612 10.8479 16.5742 10.7886 16.525 10.7395C16.4021 10.6444 16.2486 10.5976 16.0935 10.608Z" fill="white"/>
<path d="M19 7H13C12.4696 7 11.9609 7.21071 11.5858 7.58579C11.2107 7.96086 11 8.46957 11 9V15C11 15.5304 11.2107 16.0391 11.5858 16.4142C11.9609 16.7893 12.4696 17 13 17H19C19.5304 17 20.0391 16.7893 20.4142 16.4142C20.7893 16.0391 21 15.5304 21 15V9C21 8.46957 20.7893 7.96086 20.4142 7.58579C20.0391 7.21071 19.5304 7 19 7ZM17.6775 11.766C17.5999 11.9644 17.4788 12.1427 17.323 12.288C17.1672 12.4287 16.9862 12.5387 16.7895 12.612C16.5796 12.6863 16.3582 12.7229 16.1355 12.72H15.3435V14.142L15 14.478H14.545L14.203 14.142V9.864L14.545 9.522H16.1355C16.3582 9.51905 16.5797 9.55579 16.7895 9.6305C16.9886 9.69948 17.1707 9.81001 17.3238 9.95475C17.4769 10.0995 17.5975 10.2751 17.6775 10.47C17.8368 10.8873 17.8368 11.3487 17.6775 11.766Z" fill="white"/>
</svg>
