<svg width="20" height="20" viewBox="0 0 20 20" fill="none" xmlns="http://www.w3.org/2000/svg">
<path d="M10.96 1.30658C10.6414 1.26821 10.3209 1.24932 10 1.25002V1.25314C9.67915 1.25244 9.35855 1.27133 9.04 1.30971C5.85906 1.69971 3.75 4.69283 3.75 7.70971C3.75 9.65877 4.72688 11.4575 5.72469 13.1225C6.74714 14.798 7.87504 16.4067 9.10156 17.9391C9.33 18.2288 9.64094 18.7275 10 18.75V18.7469C10.3591 18.7244 10.67 18.2256 10.8984 17.936C12.125 16.4036 13.2529 14.7948 14.2753 13.1194C15.2731 11.4544 16.25 9.65627 16.25 7.70658C16.25 4.68971 14.1409 1.69658 10.96 1.30658ZM10 12.8125C8.94929 12.8125 7.92217 12.5009 7.04853 11.9172C6.1749 11.3335 5.49398 10.5038 5.09189 9.53302C4.6898 8.56229 4.58459 7.49413 4.78958 6.4636C4.99456 5.43308 5.50053 4.48648 6.2435 3.74351C6.98646 3.00055 7.93306 2.49458 8.96358 2.2896C9.99411 2.08461 11.0623 2.18982 12.033 2.59191C13.0037 2.994 13.8334 3.67492 14.4172 4.54855C15.0009 5.42219 15.3125 6.44931 15.3125 7.50002C15.3125 8.90898 14.7528 10.2602 13.7565 11.2565C12.7602 12.2528 11.409 12.8125 10 12.8125Z" fill="white"/>
<path d="M10.0584 6.63004H9.58966V7.2716H10.0584C10.1293 7.27546 10.2 7.26183 10.2643 7.23191C10.3064 7.21049 10.3426 7.17905 10.3697 7.14035C10.3908 7.10811 10.4041 7.07142 10.4087 7.03316C10.4125 6.99691 10.4143 6.96879 10.4143 6.94847C10.4181 6.90519 10.4123 6.86161 10.3974 6.8208C10.3825 6.77998 10.3588 6.74293 10.3281 6.71222C10.2513 6.6528 10.1553 6.62356 10.0584 6.63004Z" fill="white"/>
<path d="M11.875 4.375H8.125C7.79348 4.375 7.47554 4.5067 7.24112 4.74112C7.0067 4.97554 6.875 5.29348 6.875 5.625V9.375C6.875 9.70652 7.0067 10.0245 7.24112 10.2589C7.47554 10.4933 7.79348 10.625 8.125 10.625H11.875C12.2065 10.625 12.5245 10.4933 12.7589 10.2589C12.9933 10.0245 13.125 9.70652 13.125 9.375V5.625C13.125 5.29348 12.9933 4.97554 12.7589 4.74112C12.5245 4.5067 12.2065 4.375 11.875 4.375ZM11.0484 7.35375C10.9999 7.47772 10.9242 7.58922 10.8269 7.68C10.7295 7.76795 10.6164 7.83666 10.4934 7.8825C10.3622 7.92894 10.2239 7.95179 10.0847 7.95H9.58969V8.83875L9.375 9.04875H9.09063L8.87687 8.83875V6.165L9.09063 5.95125H10.0847C10.2239 5.9494 10.3623 5.97237 10.4934 6.01906C10.6179 6.06218 10.7317 6.13126 10.8274 6.22172C10.9231 6.31218 10.9984 6.42195 11.0484 6.54375C11.148 6.80457 11.148 7.09293 11.0484 7.35375Z" fill="white"/>
</svg>
