<svg width="40" height="40" viewBox="0 0 40 40" fill="none" xmlns="http://www.w3.org/2000/svg">
<path d="M26.8594 26.6797C26.6953 26.2656 26.3125 25.9453 25.7109 25.9453C23.0391 25.9453 21.7344 25.9766 20.2969 26.0078C18.2812 26.0469 18.3516 28.4688 20.4688 28.4688H25.7109C26.3516 28.4688 26.7578 28.1016 26.9062 27.6094C26.9844 27.3047 26.9766 26.9688 26.8594 26.6797ZM22.3203 31.7031H26.1875L26.5703 31.6484C26.7578 31.5938 26.9297 31.5 27.0703 31.3672L27.1172 31.3203L27.2109 31.2109L27.2344 31.1719C27.4062 30.8984 27.4688 30.5547 27.4219 30.2344C27.3984 30.0781 27.3516 29.9375 27.2812 29.7969L27.2422 29.7266L27.1953 29.6562L27.1875 29.6406L27.1719 29.625C27.1641 29.6172 27.1641 29.6172 27.1562 29.6094L27.1016 29.5469L27.0859 29.5312C26.6875 29.125 26.2188 29.1797 25.7031 29.1797H22.3125C20.6562 29.1875 20.6563 31.7031 22.3203 31.7031ZM27.9766 31.3047C27.9688 31.3125 27.9688 31.3281 27.9609 31.3359L27.9766 31.3047ZM10.2891 18.8125C11.7656 20.2891 14.1562 20.2891 15.6406 18.8125C17.1172 17.3359 17.1172 14.9453 15.6406 13.4609C14.1641 11.9844 11.7734 11.9844 10.2891 13.4609C8.8125 14.9453 8.8125 17.3359 10.2891 18.8125ZM12.9609 20.6406C10.4766 20.6406 8.46094 18.625 8.46094 16.1406C8.46094 13.6563 10.4766 11.6406 12.9609 11.6406C15.4453 11.6406 17.4609 13.6563 17.4609 16.1406C17.4609 18.625 15.4453 20.6406 12.9609 20.6406ZM25.4531 21.2188C24.3672 21.1719 23.1953 21.0781 22.1719 20.7109C21.7031 21.125 21.3125 21.6484 21.0469 22.2109C20.9922 22.3281 20.8672 22.4141 20.7266 22.4141H5.21875C5.07813 22.4219 4.9375 22.3437 4.875 22.2109C4.75781 21.9609 4.61719 21.7188 4.45312 21.4922C3.9375 20.7891 3.30469 20.2656 2.50781 19.9062C2.38281 19.8516 2.29688 19.7266 2.29688 19.5781V12.7188C2.28906 12.5781 2.36719 12.4375 2.50781 12.375C3.54688 11.9141 4.39844 11.0937 4.88281 10.0703C4.9375 9.95312 5.0625 9.86719 5.20312 9.86719H20.7031C20.8438 9.85938 20.9844 9.9375 21.0469 10.0703C21.4062 10.8359 21.9766 11.4922 22.6797 11.9687C22.9062 12.125 23.1484 12.2578 23.3984 12.3672C23.5391 12.4141 23.6406 12.5469 23.6406 12.7031V16.3047C24.2578 16.3672 24.8594 16.4062 25.4688 16.4297V8.24219H0.46875V24.0469H25.4531V21.2188ZM25.2891 25.2344L25.6641 25.2031C26.7109 24.9766 26.8594 23.5859 26.1719 22.9922V24.4062C26.1719 24.6016 26.0078 24.7656 25.8125 24.7656H17.75C18.0234 25.0391 18.4219 25.1719 18.8828 25.1797L25.2891 25.2344ZM29.7031 22.5312C30.0703 24.2812 31.0312 25.8516 32.3594 27.0938C32.7031 27.4141 32.2188 27.9375 31.875 27.6172C30.2734 26.125 29.1797 24.1875 28.8984 22.0547C28.0391 21.5859 27.0469 21.1875 26.1719 21.2031V22.1562C27.4688 22.7109 27.6719 24.5391 26.6797 25.4531C27.0391 25.6484 27.3672 25.9922 27.5078 26.375C27.6562 26.7734 27.7109 27.125 27.6484 27.5234C27.5859 27.9453 27.3984 28.3594 27.0859 28.6562C27.5938 28.8984 27.9219 29.3438 28.0703 29.8516C28.1484 30.1406 28.1719 30.4375 28.1328 30.7344C28.0781 31.1094 27.9297 31.4688 27.6953 31.7578C28.9141 31.7656 30.6953 31.6953 32.3438 31.3672C35.0938 30.8203 36.5234 30.1562 39.5312 30.1094V20.5312C32.7344 20.4297 34.0234 17.4766 29.125 17.2656L27.0469 17.1953L25.7656 17.1562C24.9297 17.125 24.1094 17.0781 23.25 16.9766C22.8281 16.9453 21.875 16.7734 21.3984 16.6797C20.5781 16.5078 20 16.7266 20.2031 17.625C20.7969 20.2344 23.5234 20.4219 25.6953 20.5H25.7812C26.4609 20.4141 27.2344 20.5391 28.1016 20.8828C28.9531 21.2187 29.9062 21.7578 30.9453 22.5078C31.1094 22.625 31.1484 22.8438 31.0312 23.0078C30.9141 23.1719 30.6953 23.2031 30.5312 23.0859C30.2578 22.8906 29.9766 22.7031 29.7031 22.5312ZM12.6016 15.7188V14.7031C12.2031 14.7812 11.9219 14.9844 11.9219 15.2266C11.9297 15.5156 12.2266 15.6406 12.6016 15.7188ZM13.3203 16.5625V17.5781C13.5938 17.5156 13.9922 17.3281 13.9922 17.0547C13.9922 16.7656 13.6953 16.6484 13.3203 16.5625ZM12.6016 13.6953C12.6016 13.2266 13.3203 13.2266 13.3203 13.6953V13.9766C14.8125 14.2031 15.0156 15.5859 14.3516 15.5859C14.1562 15.5859 13.9922 15.4297 13.9922 15.2266C13.9922 14.9531 13.5938 14.7578 13.3203 14.7031V15.8359C14.0547 15.9609 14.7109 16.1719 14.7109 17.0547C14.7109 17.7578 14 18.2031 13.3203 18.3047V18.5781C13.3203 19.0469 12.6016 19.0469 12.6016 18.5781V18.2969C11.1172 18.0703 10.8984 16.6875 11.5703 16.6875C11.7656 16.6875 11.9297 16.8438 11.9297 17.0469C11.9297 17.2891 12.2109 17.4922 12.6094 17.5703V16.4297C11.875 16.3047 11.2188 16.0938 11.2188 15.2109C11.2188 14.5937 11.8203 14.0781 12.6094 13.9609V13.6953H12.6016ZM5.625 16.5C5.15625 16.5 5.15625 15.7812 5.625 15.7812H7.61719C8.08594 15.7812 8.08594 16.5 7.61719 16.5H5.625ZM18.3047 16.5C17.8359 16.5 17.8359 15.7812 18.3047 15.7812H20.3047C20.4297 15.7812 20.5391 15.8438 20.6016 15.9453C20.875 15.8984 21.1875 15.9063 21.5547 15.9844C22.0234 16.0781 22.4766 16.1563 22.9141 16.2188V12.9219C21.8828 12.4141 21.0391 11.5859 20.5 10.5703H5.42188C4.89062 11.5859 4.03906 12.4141 3.00781 12.9219V19.3438C3.8125 19.7422 4.50781 20.3359 5.03125 21.0625C5.17188 21.2656 5.30469 21.4688 5.42188 21.6953H20.5C20.7578 21.2109 21.0781 20.7734 21.4609 20.3906C20.5313 19.8906 19.8125 19.0859 19.5156 17.7891C19.4141 17.3359 19.4375 16.8672 19.6875 16.4922H18.3047V16.5Z" fill="white"/>
</svg>
