<svg width="25" height="24" viewBox="0 0 25 24" fill="none" xmlns="http://www.w3.org/2000/svg">
<path d="M16.7871 16.0078C16.6846 15.7594 16.4453 15.5672 16.0693 15.5672C14.3994 15.5672 13.584 15.5859 12.6855 15.6047C11.4258 15.6281 11.4697 17.0812 12.793 17.0812H16.0693C16.4697 17.0812 16.7236 16.8609 16.8164 16.5656C16.8652 16.3828 16.8604 16.1812 16.7871 16.0078ZM13.9502 19.0219H16.3672L16.6064 18.9891C16.7236 18.9563 16.8311 18.9 16.9189 18.8203L16.9482 18.7922L17.0068 18.7266L17.0215 18.7031C17.1289 18.5391 17.168 18.3328 17.1387 18.1406C17.124 18.0469 17.0947 17.9625 17.0508 17.8781L17.0264 17.8359L16.9971 17.7938L16.9922 17.7844L16.9824 17.775C16.9775 17.7703 16.9775 17.7703 16.9727 17.7656L16.9385 17.7281L16.9287 17.7188C16.6797 17.475 16.3867 17.5078 16.0645 17.5078H13.9453C12.9102 17.5125 12.9102 19.0219 13.9502 19.0219ZM17.4854 18.7828C17.4805 18.7875 17.4805 18.7969 17.4756 18.8016L17.4854 18.7828ZM6.43066 11.2875C7.35352 12.1734 8.84766 12.1734 9.77539 11.2875C10.6982 10.4016 10.6982 8.96719 9.77539 8.07656C8.85254 7.19063 7.3584 7.19063 6.43066 8.07656C5.50781 8.96719 5.50781 10.4016 6.43066 11.2875ZM8.10059 12.3844C6.54785 12.3844 5.28809 11.175 5.28809 9.68438C5.28809 8.19375 6.54785 6.98438 8.10059 6.98438C9.65332 6.98438 10.9131 8.19375 10.9131 9.68438C10.9131 11.175 9.65332 12.3844 8.10059 12.3844ZM15.9082 12.7313C15.2295 12.7031 14.4971 12.6469 13.8574 12.4266C13.5645 12.675 13.3203 12.9891 13.1543 13.3266C13.1201 13.3969 13.042 13.4484 12.9541 13.4484H3.26172C3.17383 13.4531 3.08594 13.4062 3.04688 13.3266C2.97363 13.1766 2.88574 13.0312 2.7832 12.8953C2.46094 12.4734 2.06543 12.1594 1.56738 11.9438C1.48926 11.9109 1.43555 11.8359 1.43555 11.7469V7.63125C1.43066 7.54688 1.47949 7.4625 1.56738 7.425C2.2168 7.14844 2.74902 6.65625 3.05176 6.04219C3.08594 5.97187 3.16406 5.92031 3.25195 5.92031H12.9395C13.0273 5.91563 13.1152 5.9625 13.1543 6.04219C13.3789 6.50156 13.7354 6.89531 14.1748 7.18125C14.3164 7.275 14.4678 7.35469 14.624 7.42031C14.7119 7.44844 14.7754 7.52813 14.7754 7.62188V9.78281C15.1611 9.82031 15.5371 9.84375 15.918 9.85781V4.94531H0.292969V14.4281H15.9082V12.7313ZM15.8057 15.1406L16.04 15.1219C16.6943 14.9859 16.7871 14.1516 16.3574 13.7953V14.6437C16.3574 14.7609 16.2549 14.8594 16.1328 14.8594H11.0938C11.2646 15.0234 11.5137 15.1031 11.8018 15.1078L15.8057 15.1406ZM18.5645 13.5187C18.7939 14.5687 19.3945 15.5109 20.2246 16.2562C20.4395 16.4484 20.1367 16.7625 19.9219 16.5703C18.9209 15.675 18.2373 14.5125 18.0615 13.2328C17.5244 12.9516 16.9043 12.7125 16.3574 12.7219V13.2938C17.168 13.6266 17.2949 14.7234 16.6748 15.2719C16.8994 15.3891 17.1045 15.5953 17.1924 15.825C17.2852 16.0641 17.3193 16.275 17.2803 16.5141C17.2412 16.7672 17.124 17.0156 16.9287 17.1937C17.2461 17.3391 17.4512 17.6063 17.5439 17.9109C17.5928 18.0844 17.6074 18.2625 17.583 18.4406C17.5488 18.6656 17.4561 18.8813 17.3096 19.0547C18.0713 19.0594 19.1846 19.0172 20.2148 18.8203C21.9336 18.4922 22.8271 18.0938 24.707 18.0656V12.3187C20.459 12.2578 21.2646 10.4859 18.2031 10.3594L16.9043 10.3172L16.1035 10.2938C15.5811 10.275 15.0684 10.2469 14.5312 10.1859C14.2676 10.1672 13.6719 10.0641 13.374 10.0078C12.8613 9.90469 12.5 10.0359 12.627 10.575C12.998 12.1406 14.7021 12.2531 16.0596 12.3H16.1133C16.5381 12.2484 17.0215 12.3234 17.5635 12.5297C18.0957 12.7312 18.6914 13.0547 19.3408 13.5047C19.4434 13.575 19.4678 13.7063 19.3945 13.8047C19.3213 13.9031 19.1846 13.9219 19.082 13.8516C18.9111 13.7344 18.7354 13.6219 18.5645 13.5187ZM7.87598 9.43125V8.82187C7.62695 8.86875 7.45117 8.99062 7.45117 9.13594C7.45606 9.30937 7.6416 9.38437 7.87598 9.43125ZM8.3252 9.9375V10.5469C8.49609 10.5094 8.74512 10.3969 8.74512 10.2328C8.74512 10.0594 8.55957 9.98906 8.3252 9.9375ZM7.87598 8.21719C7.87598 7.93594 8.3252 7.93594 8.3252 8.21719V8.38594C9.25781 8.52187 9.38477 9.35156 8.96973 9.35156C8.84766 9.35156 8.74512 9.25781 8.74512 9.13594C8.74512 8.97187 8.49609 8.85469 8.3252 8.82187V9.50156C8.78418 9.57656 9.19434 9.70312 9.19434 10.2328C9.19434 10.6547 8.75 10.9219 8.3252 10.9828V11.1469C8.3252 11.4281 7.87598 11.4281 7.87598 11.1469V10.9781C6.94824 10.8422 6.81152 10.0125 7.23145 10.0125C7.35352 10.0125 7.45605 10.1062 7.45605 10.2281C7.45605 10.3734 7.63184 10.4953 7.88086 10.5422V9.85781C7.42187 9.78281 7.01172 9.65625 7.01172 9.12656C7.01172 8.75625 7.38769 8.44687 7.88086 8.37656V8.21719H7.87598ZM3.51562 9.9C3.22266 9.9 3.22266 9.46875 3.51562 9.46875H4.76074C5.05371 9.46875 5.05371 9.9 4.76074 9.9H3.51562ZM11.4404 9.9C11.1475 9.9 11.1475 9.46875 11.4404 9.46875H12.6904C12.7686 9.46875 12.8369 9.50625 12.876 9.56719C13.0469 9.53906 13.2422 9.54375 13.4717 9.59063C13.7646 9.64688 14.0479 9.69375 14.3213 9.73125V7.75312C13.6768 7.44844 13.1494 6.95156 12.8125 6.34219H3.38867C3.05664 6.95156 2.52441 7.44844 1.87988 7.75312V11.6063C2.38281 11.8453 2.81738 12.2016 3.14453 12.6375C3.23242 12.7594 3.31543 12.8813 3.38867 13.0172H12.8125C12.9736 12.7266 13.1738 12.4641 13.4131 12.2344C12.832 11.9344 12.3828 11.4516 12.1973 10.6734C12.1338 10.4016 12.1484 10.1203 12.3047 9.89531H11.4404V9.9Z" fill="white"/>
</svg>
