<svg width="30" height="30" viewBox="0 0 30 30" fill="none" xmlns="http://www.w3.org/2000/svg">
<g clip-path="url(#clip0_10_1896)">
<path d="M20.5672 17.2015C20.5542 17.2565 20.5422 17.3101 20.5289 17.3653C20.3645 18.0547 19.7548 18.5363 19.0467 18.5363C18.9273 18.5363 18.8075 18.5223 18.6913 18.4947C17.8737 18.2996 17.3669 17.475 17.5618 16.6568C18.2725 13.6846 18.6321 11.2292 18.6306 9.3579C18.6312 8.73718 18.5913 8.23695 18.5312 7.83615L18.7915 7.55034C18.8774 8.01138 18.9366 8.60206 18.9358 9.35821C18.937 10.9983 18.6599 13.3766 17.8586 16.7275C17.7026 17.3829 18.107 18.0414 18.7621 18.1976C18.8574 18.2205 18.953 18.2313 19.0468 18.2313C19.5985 18.2313 20.0985 17.8544 20.2323 17.2944C21.0621 13.8138 21.3752 11.2678 21.3761 9.35821C21.3748 7.60387 21.1129 6.37524 20.6831 5.47314C20.6663 5.43776 20.6497 5.40192 20.6323 5.3676C20.1792 4.45696 19.4975 3.92851 18.9443 3.72033C18.8691 3.6909 18.7981 3.66756 18.7298 3.64758C18.6172 5.60766 16.9876 7.16754 14.9999 7.16754C13.0123 7.16754 11.3828 5.60766 11.2704 3.64758C11.2021 3.66756 11.131 3.69074 11.0559 3.72033C10.5024 3.92851 9.82082 4.45696 9.36786 5.3676C9.35047 5.40207 9.33385 5.43776 9.31707 5.47314C8.88699 6.37524 8.62543 7.60387 8.62406 9.35821C8.62498 11.2678 8.93778 13.8138 9.76789 17.2944C9.90134 17.8544 10.4014 18.2313 10.9534 18.2313C11.0472 18.2313 11.1425 18.2206 11.2378 18.1976C11.8931 18.0416 12.2976 17.3829 12.1413 16.7275C11.3403 13.3764 11.063 10.9983 11.0641 9.35821C11.0635 8.60206 11.1225 8.01138 11.2084 7.55034L11.4685 7.836C11.4086 8.23695 11.3685 8.73703 11.3691 9.35775C11.3679 11.2291 11.7275 13.6843 12.4382 16.6566C12.633 17.4748 12.1263 18.2993 11.3087 18.4945C11.1922 18.5223 11.0728 18.5362 10.9534 18.5362C10.2451 18.5362 9.63551 18.0545 9.4708 17.3652C9.45769 17.31 9.44564 17.2565 9.43268 17.2017L8.13054 18.9461C7.85708 19.3118 7.72577 19.7576 7.75612 20.2133L8.28976 28.2203C8.35701 29.2277 9.19537 29.9998 10.1904 30C10.2329 30 10.2756 29.9984 10.3186 29.9957C11.3693 29.926 12.1641 29.0172 12.094 27.9667L11.6072 20.6622L14.8348 16.3389H15.1656L18.3929 20.6623L17.9059 27.967C17.8357 29.0172 18.6306 29.9259 19.6813 29.996C19.7243 29.9989 19.7671 30.0001 19.8095 30.0001C20.8048 30.0001 21.6433 29.2283 21.7106 28.2206L22.2442 20.2136C22.2747 19.7581 22.1428 19.3123 21.8698 18.9464L20.5672 17.2015Z" fill="#979797"/>
<path d="M14.9998 6.863C16.895 6.863 18.4313 5.32666 18.4313 3.4315C18.4313 1.53633 16.895 0 14.9998 0C13.1046 0 11.5683 1.53633 11.5683 3.4315C11.5683 5.32666 13.1046 6.863 14.9998 6.863Z" fill="#979797"/>
</g>
<defs>
<clipPath id="clip0_10_1896">
<rect width="30" height="30" fill="white"/>
</clipPath>
</defs>
</svg>
