<svg width="30" height="30" viewBox="0 0 30 30" fill="none" xmlns="http://www.w3.org/2000/svg">
<g clip-path="url(#clip0_9_1001)">
<path d="M20.5672 17.2016C20.5542 17.2565 20.5422 17.3102 20.5289 17.3654C20.3645 18.0547 19.7548 18.5364 19.0467 18.5364C18.9272 18.5364 18.8075 18.5223 18.6913 18.4947C17.8737 18.2997 17.3669 17.475 17.5618 16.6568C18.2725 13.6847 18.6321 11.2292 18.6306 9.35793C18.6312 8.73721 18.5913 8.23698 18.5312 7.83618L18.7915 7.55037C18.8774 8.01141 18.9365 8.60209 18.9358 9.35824C18.937 10.9983 18.6599 13.3766 17.8586 16.7276C17.7026 17.3829 18.107 18.0415 18.7621 18.1976C18.8574 18.2205 18.953 18.2313 19.0468 18.2313C19.5984 18.2313 20.0985 17.8545 20.2323 17.2945C21.0621 13.8139 21.3752 11.2678 21.3761 9.35824C21.3747 7.6039 21.1129 6.37527 20.6831 5.47317C20.6663 5.43779 20.6497 5.40195 20.6323 5.36763C20.1792 4.45699 19.4975 3.92854 18.9443 3.72036C18.8691 3.69093 18.7981 3.66759 18.7297 3.64761C18.6172 5.60769 16.9876 7.16757 14.9999 7.16757C13.0122 7.16757 11.3828 5.60769 11.2704 3.64761C11.2021 3.66759 11.131 3.69077 11.0558 3.72036C10.5024 3.92854 9.8208 4.45699 9.36784 5.36763C9.35046 5.4021 9.33383 5.43779 9.31706 5.47317C8.88698 6.37527 8.62542 7.6039 8.62405 9.35824C8.62496 11.2678 8.93776 13.8139 9.76788 17.2945C9.90133 17.8545 10.4014 18.2313 10.9533 18.2313C11.0471 18.2313 11.1425 18.2207 11.2378 18.1976C11.8931 18.0416 12.2976 17.3829 12.1413 16.7276C11.3403 13.3764 11.063 10.9983 11.0641 9.35824C11.0635 8.60209 11.1225 8.01141 11.2083 7.55037L11.4685 7.83603C11.4086 8.23698 11.3685 8.73706 11.3691 9.35778C11.3679 11.2291 11.7275 13.6844 12.4382 16.6567C12.633 17.4749 12.1263 18.2994 11.3087 18.4946C11.1922 18.5223 11.0728 18.5362 10.9533 18.5362C10.2451 18.5362 9.6355 18.0546 9.47079 17.3652C9.45767 17.31 9.44562 17.2565 9.43266 17.2017L8.13052 18.9462C7.85707 19.3119 7.72576 19.7577 7.75611 20.2134L8.28974 28.2204C8.357 29.2277 9.19535 29.9999 10.1903 30C10.2329 30 10.2756 29.9985 10.3186 29.9957C11.3692 29.926 12.1641 29.0172 12.094 27.9667L11.6072 20.6622L14.8348 16.339H15.1656L18.3928 20.6624L17.9059 27.967C17.8357 29.0172 18.6306 29.9259 19.6813 29.996C19.7243 29.9989 19.7671 30.0002 19.8095 30.0002C20.8048 30.0002 21.6433 29.2283 21.7106 28.2207L22.2442 20.2137C22.2747 19.7581 22.1428 19.3123 21.8698 18.9465L20.5672 17.2016Z" fill="#979797"/>
<path d="M14.9998 6.863C16.8949 6.863 18.4313 5.32666 18.4313 3.4315C18.4313 1.53633 16.8949 0 14.9998 0C13.1046 0 11.5683 1.53633 11.5683 3.4315C11.5683 5.32666 13.1046 6.863 14.9998 6.863Z" fill="#979797"/>
</g>
<defs>
<clipPath id="clip0_9_1001">
<rect width="30" height="30" fill="white"/>
</clipPath>
</defs>
</svg>
