<svg width="25" height="25" viewBox="0 0 25 25" fill="none" xmlns="http://www.w3.org/2000/svg">
<path d="M22.0109 5.97826H19.4022L17.962 3.80435C17.4185 2.98913 16.4674 2.5 15.4891 2.5H9.51087C8.53261 2.5 7.58152 2.98913 7.03804 3.80435L5.59783 5.97826H2.98913C1.33152 5.97826 0 7.30978 0 8.96739V19.5109C0 21.1685 1.33152 22.5 2.98913 22.5H22.0109C23.6685 22.5 25 21.1685 25 19.5109V8.96739C25 7.30978 23.6685 5.97826 22.0109 5.97826ZM12.5 20.0543C8.77717 20.0543 5.76087 17.038 5.76087 13.3152C5.76087 9.59239 8.77717 6.60326 12.5 6.60326C16.2228 6.60326 19.2391 9.61956 19.2391 13.3424C19.2391 17.038 16.2228 20.0543 12.5 20.0543ZM21.6304 10.1902C21.6033 10.1902 21.5761 10.1902 21.5217 10.1902H20.4348C19.9457 10.163 19.5652 9.75543 19.5924 9.2663C19.6196 8.80435 19.9728 8.45109 20.4348 8.42391H21.5217C22.0109 8.39674 22.4185 8.77717 22.4457 9.2663C22.4728 9.75543 22.1196 10.163 21.6304 10.1902Z" fill="#D9D9D9"/>
<path d="M12.5 9.59241C10.4348 9.59241 8.75 11.2772 8.75 13.3424C8.75 15.4076 10.4348 17.0652 12.5 17.0652C14.5652 17.0652 16.25 15.3805 16.25 13.3152C16.25 11.25 14.5652 9.59241 12.5 9.59241Z" fill="#D9D9D9"/>
</svg>
