<svg width="36" height="36" viewBox="0 0 36 36" fill="none" xmlns="http://www.w3.org/2000/svg">
<g clip-path="url(#clip0_16_9999)">
<path d="M1.63638 13.0909C0.654565 13.0909 0 12.4363 0 11.4545V4.90907C0 2.12725 2.12725 0 4.90907 0H11.4545C12.4363 0 13.0909 0.654565 13.0909 1.63638C13.0909 2.61819 12.4363 3.27276 11.4545 3.27276H4.90907C3.92726 3.27276 3.27269 3.92732 3.27269 4.90914V11.4546C3.27276 12.4363 2.61819 13.0909 1.63638 13.0909Z" fill="#261E41"/>
<path d="M34.3638 13.0909C33.3819 13.0909 32.7274 12.4363 32.7274 11.4545V4.90907C32.7274 3.92726 32.0728 3.27269 31.091 3.27269H24.5456C23.5637 3.27269 22.9092 2.61813 22.9092 1.63631C22.9092 0.654498 23.5637 0 24.5456 0H31.091C33.8728 0 36.0001 2.12725 36.0001 4.90907V11.4545C36.0001 12.4363 35.3456 13.0909 34.3638 13.0909Z" fill="#261E41"/>
<path d="M11.4545 36H4.90907C2.12725 36 0 33.8727 0 31.0909V24.5454C0 23.5636 0.654565 22.9091 1.63638 22.9091C2.61819 22.9091 3.27276 23.5636 3.27276 24.5454V31.0909C3.27276 32.0727 3.92732 32.7273 4.90914 32.7273H11.4546C12.4364 32.7273 13.091 33.3818 13.091 34.3636C13.0909 35.3454 12.4363 36 11.4545 36Z" fill="#261E41"/>
<path d="M31.091 36H24.5456C23.5637 36 22.9092 35.3455 22.9092 34.3636C22.9092 33.3818 23.5637 32.7273 24.5456 32.7273H31.091C32.0728 32.7273 32.7274 32.0727 32.7274 31.0909V24.5454C32.7274 23.5636 33.382 22.9091 34.3638 22.9091C35.3456 22.9091 36.0001 23.5636 36.0001 24.5454V31.0909C36.0001 33.8728 33.8728 36 31.091 36Z" fill="#261E41"/>
<path d="M14.7272 16.3636H8.18179C7.19997 16.3636 6.54541 15.7091 6.54541 14.7272V8.18179C6.54541 7.19997 7.19997 6.54541 8.18179 6.54541H14.7272C15.7091 6.54541 16.3636 7.19997 16.3636 8.18179V14.7272C16.3636 15.7091 15.7091 16.3636 14.7272 16.3636ZM9.81817 13.0909H13.0909V9.8181H9.81817V13.0909Z" fill="#261E41"/>
<path d="M14.7272 29.4546H8.18179C7.19997 29.4546 6.54541 28.8 6.54541 27.8182V21.2727C6.54541 20.2909 7.19997 19.6364 8.18179 19.6364H14.7272C15.7091 19.6364 16.3636 20.2909 16.3636 21.2727V27.8182C16.3636 28.8 15.7091 29.4546 14.7272 29.4546ZM9.81817 26.1818H13.0909V22.909H9.81817V26.1818Z" fill="#261E41"/>
<path d="M27.8181 16.3636H21.2726C20.2908 16.3636 19.6362 15.7091 19.6362 14.7272V8.18179C19.6362 7.19997 20.2908 6.54541 21.2726 6.54541H27.8181C28.7999 6.54541 29.4544 7.19997 29.4544 8.18179V14.7272C29.4544 15.7091 28.7999 16.3636 27.8181 16.3636ZM22.909 13.0909H26.1817V9.8181H22.909V13.0909Z" fill="#261E41"/>
<path d="M21.2726 24.5454C20.2908 24.5454 19.6362 23.8908 19.6362 22.909V21.2726C19.6362 20.2908 20.2908 19.6362 21.2726 19.6362C22.2544 19.6362 22.909 20.2908 22.909 21.2726V22.909C22.909 23.8909 22.2544 24.5454 21.2726 24.5454Z" fill="#261E41"/>
<path d="M27.8182 22.9091H26.1818C25.2 22.9091 24.5454 22.2545 24.5454 21.2727C24.5454 20.2909 25.2 19.6364 26.1818 19.6364H27.8182C28.8 19.6364 29.4545 20.2909 29.4545 21.2727C29.4545 22.2545 28.8 22.9091 27.8182 22.9091Z" fill="#261E41"/>
<path d="M27.8184 29.4545H22.9093C21.9275 29.4545 21.2729 28.8 21.2729 27.8181C21.2729 26.8363 21.9275 26.1818 22.9093 26.1818H27.8184C28.8002 26.1818 29.4548 26.8363 29.4548 27.8181C29.4548 28.8 28.8002 29.4545 27.8184 29.4545Z" fill="#261E41"/>
</g>
<defs>
<clipPath id="clip0_16_9999">
<rect width="36" height="36" fill="white"/>
</clipPath>
</defs>
</svg>
