<svg width="36" height="36" viewBox="0 0 36 36" fill="none" xmlns="http://www.w3.org/2000/svg">
<g clip-path="url(#clip0_15_5655)">
<path d="M1.63638 13.0909C0.654565 13.0909 0 12.4363 0 11.4545V4.90907C0 2.12725 2.12725 0 4.90907 0H11.4545C12.4363 0 13.0909 0.654565 13.0909 1.63638C13.0909 2.61819 12.4363 3.27276 11.4545 3.27276H4.90907C3.92726 3.27276 3.27269 3.92732 3.27269 4.90914V11.4546C3.27276 12.4363 2.61819 13.0909 1.63638 13.0909Z" fill="#261E41"/>
<path d="M34.3635 13.0909C33.3817 13.0909 32.7271 12.4363 32.7271 11.4545V4.90907C32.7271 3.92726 32.0726 3.27269 31.0908 3.27269H24.5453C23.5635 3.27269 22.9089 2.61813 22.9089 1.63631C22.9089 0.654498 23.5635 0 24.5453 0H31.0908C33.8726 0 35.9998 2.12725 35.9998 4.90907V11.4545C35.9999 12.4363 35.3453 13.0909 34.3635 13.0909Z" fill="#261E41"/>
<path d="M11.4545 36H4.90907C2.12725 36 0 33.8728 0 31.0909V24.5455C0 23.5637 0.654565 22.9091 1.63638 22.9091C2.61819 22.9091 3.27276 23.5637 3.27276 24.5455V31.0909C3.27276 32.0728 3.92732 32.7273 4.90914 32.7273H11.4546C12.4364 32.7273 13.091 33.3819 13.091 34.3637C13.0909 35.3455 12.4363 36 11.4545 36Z" fill="#261E41"/>
<path d="M31.091 36H24.5456C23.5637 36 22.9092 35.3455 22.9092 34.3636C22.9092 33.3818 23.5637 32.7273 24.5456 32.7273H31.091C32.0728 32.7273 32.7274 32.0727 32.7274 31.0909V24.5454C32.7274 23.5636 33.382 22.9091 34.3638 22.9091C35.3456 22.9091 36.0001 23.5636 36.0001 24.5454V31.0909C36.0001 33.8728 33.8728 36 31.091 36Z" fill="#261E41"/>
<path d="M14.7272 16.3637H8.18179C7.19997 16.3637 6.54541 15.7091 6.54541 14.7273V8.18185C6.54541 7.20004 7.19997 6.54547 8.18179 6.54547H14.7272C15.7091 6.54547 16.3636 7.20004 16.3636 8.18185V14.7273C16.3636 15.7091 15.7091 16.3637 14.7272 16.3637ZM9.81817 13.0909H13.0909V9.81816H9.81817V13.0909Z" fill="#261E41"/>
<path d="M14.7272 29.4546H8.18179C7.19997 29.4546 6.54541 28.8 6.54541 27.8182V21.2727C6.54541 20.2909 7.19997 19.6364 8.18179 19.6364H14.7272C15.7091 19.6364 16.3636 20.2909 16.3636 21.2727V27.8182C16.3636 28.8 15.7091 29.4546 14.7272 29.4546ZM9.81817 26.1818H13.0909V22.909H9.81817V26.1818Z" fill="#261E41"/>
<path d="M27.8181 16.3637H21.2726C20.2908 16.3637 19.6362 15.7091 19.6362 14.7273V8.18185C19.6362 7.20004 20.2908 6.54547 21.2726 6.54547H27.8181C28.7999 6.54547 29.4544 7.20004 29.4544 8.18185V14.7273C29.4544 15.7091 28.7999 16.3637 27.8181 16.3637ZM22.909 13.0909H26.1817V9.81816H22.909V13.0909Z" fill="#261E41"/>
<path d="M21.2726 24.5454C20.2908 24.5454 19.6362 23.8909 19.6362 22.909V21.2727C19.6362 20.2909 20.2908 19.6363 21.2726 19.6363C22.2544 19.6363 22.909 20.2909 22.909 21.2727V22.909C22.909 23.8909 22.2544 24.5454 21.2726 24.5454Z" fill="#261E41"/>
<path d="M27.8182 22.9091H26.1818C25.2 22.9091 24.5454 22.2545 24.5454 21.2727C24.5454 20.2909 25.2 19.6364 26.1818 19.6364H27.8182C28.8 19.6364 29.4545 20.2909 29.4545 21.2727C29.4545 22.2545 28.8 22.9091 27.8182 22.9091Z" fill="#261E41"/>
<path d="M27.8182 29.4546H22.9091C21.9273 29.4546 21.2727 28.8 21.2727 27.8182C21.2727 26.8364 21.9273 26.1818 22.9091 26.1818H27.8182C28.8 26.1818 29.4545 26.8364 29.4545 27.8182C29.4545 28.8 28.8 29.4546 27.8182 29.4546Z" fill="#261E41"/>
</g>
<defs>
<clipPath id="clip0_15_5655">
<rect width="36" height="36" fill="white"/>
</clipPath>
</defs>
</svg>
