<svg width="46" height="46" viewBox="0 0 46 46" fill="none" xmlns="http://www.w3.org/2000/svg">
<g clip-path="url(#clip0_14_4918)">
<path d="M9.563 0.362061H2.384C1.062 0.362061 0 1.42106 0 2.74206V9.92306C0 11.2441 1.062 12.3261 2.384 12.3261H9.564C10.886 12.3261 11.963 11.2441 11.963 9.92306V2.74206C11.963 1.42106 10.885 0.362061 9.563 0.362061ZM9.803 9.88306C9.803 10.0401 9.676 10.1671 9.518 10.1671H2.352C2.195 10.1671 2.068 10.0401 2.068 9.88306V2.71506C2.068 2.55806 2.195 2.43106 2.352 2.43106H9.519C9.677 2.43106 9.804 2.55806 9.804 2.71506L9.803 9.88306Z" fill="white"/>
<path d="M8.27501 4.05005H3.68701V8.63705H8.27501V4.05005Z" fill="white"/>
<path d="M9.563 19.072H2.384C1.062 19.072 0 20.126 0 21.447V28.629C0 29.949 1.062 31.037 2.384 31.037H9.564C10.886 31.037 11.963 29.949 11.963 28.629V21.447C11.963 20.126 10.885 19.072 9.563 19.072ZM9.803 28.624C9.803 28.782 9.691 28.878 9.534 28.878H2.373C2.216 28.878 2.068 28.782 2.068 28.624V21.461C2.068 21.304 2.215 21.141 2.373 21.141H9.535C9.691 21.141 9.804 21.305 9.804 21.461L9.803 28.624Z" fill="white"/>
<path d="M8.27501 22.76H3.68701V27.348H8.27501V22.76Z" fill="white"/>
<path d="M20.9909 12.3261H28.1719C29.4919 12.3261 30.5829 11.2441 30.5829 9.92306V2.74206C30.5829 1.42106 29.4919 0.362061 28.1719 0.362061H20.9909C19.6689 0.362061 18.6189 1.42106 18.6189 2.74206V9.92306C18.6189 11.2441 19.6689 12.3261 20.9909 12.3261ZM20.6879 2.71506C20.6879 2.55806 20.8149 2.43106 20.9719 2.43106H28.1399C28.2959 2.43106 28.4229 2.55806 28.4229 2.71506V9.88306C28.4229 10.0401 28.2959 10.1671 28.1399 10.1671H20.9719C20.8149 10.1671 20.6879 10.0401 20.6879 9.88306V2.71506Z" fill="white"/>
<path d="M26.894 4.05005H22.218V8.63705H26.894V4.05005Z" fill="white"/>
<path d="M4.29909 13.675H2.71609C2.37109 13.675 2.06909 13.963 2.06909 14.308V15.891C2.06909 16.236 2.37109 16.554 2.71609 16.554H4.22709V16.574C4.22709 16.919 4.47109 17.183 4.81609 17.183H8.36509V17.258C8.36509 17.603 8.67109 17.903 9.01609 17.903H10.5991C10.9451 17.903 11.2431 17.604 11.2431 17.258V15.724C11.2431 15.379 10.9451 15.114 10.5991 15.114H9.80409V14.308C9.80409 13.963 9.52909 13.675 9.18309 13.675H8.33209C7.98709 13.675 7.73509 13.963 7.73509 14.308V15.115H4.94609V14.308C4.94609 13.962 4.64409 13.675 4.29909 13.675Z" fill="white"/>
<path d="M14.3909 7.10802V10.616C14.3909 10.961 14.6279 11.246 14.9739 11.246H17.2409C17.5859 11.246 17.8999 10.961 17.8999 10.616V9.03302C17.8999 8.68802 17.5859 8.36702 17.2409 8.36702H16.4609V3.51002H16.5569C16.9019 3.51002 17.1809 3.24402 17.1809 2.89902V2.04902C17.1809 1.70402 16.9029 1.44202 16.5569 1.44202H13.5579C13.2119 1.44202 12.9519 1.70502 12.9519 2.04902V2.89902C12.9519 3.24402 13.2119 3.51002 13.5579 3.51002H14.3909V5.75902H13.5579C13.2119 5.75902 12.9519 6.05002 12.9519 6.39502V6.51302C12.9519 6.85802 13.2119 7.10802 13.5579 7.10802H14.3909Z" fill="white"/>
<path d="M16.101 14.3991V12.8601C16.101 12.5151 15.821 12.2351 15.476 12.2351H13.937C13.592 12.2351 13.312 12.5151 13.312 12.8601V14.3991C13.312 14.7441 13.592 15.0241 13.937 15.0241H15.476C15.821 15.0241 16.101 14.7451 16.101 14.3991Z" fill="white"/>
<path d="M18.8319 14.9351C18.4869 14.9351 18.1699 15.2331 18.1699 15.5781V16.1961C18.7099 15.7391 19.3009 15.2951 19.8859 14.9351H18.8319Z" fill="white"/>
<path d="M18.0081 16.374H15.3161C14.9711 16.374 14.6621 16.648 14.6621 16.994V20.599C15.3821 19.3 16.2391 18.085 17.3281 16.996C17.5431 16.781 17.7801 16.554 18.0081 16.374Z" fill="white"/>
<path d="M44.6269 40.1941L38.7399 34.3081C41.8339 29.3531 41.2429 22.6971 36.9279 18.3811C31.9089 13.3631 23.7439 13.3621 18.7259 18.3811C13.7069 23.3991 13.7169 31.5561 18.7349 36.5751C23.0509 40.8891 29.6699 41.5181 34.6699 38.3781L40.5569 44.2661C41.6859 45.3961 43.5079 45.4051 44.6369 44.2761C45.7659 43.1441 45.7559 41.3251 44.6269 40.1941ZM34.4769 34.1271C30.8109 37.7931 24.8479 37.7931 21.1829 34.1271C17.5159 30.4611 17.5159 24.4961 21.1829 20.8321C24.8489 17.1671 30.8109 17.1671 34.4769 20.8321C38.1409 24.4971 38.1409 30.4611 34.4769 34.1271Z" fill="white"/>
</g>
<defs>
<clipPath id="clip0_14_4918">
<rect width="45.479" height="45.479" fill="white"/>
</clipPath>
</defs>
</svg>
