<svg width="44" height="44" viewBox="0 0 44 44" fill="none" xmlns="http://www.w3.org/2000/svg">
<g clip-path="url(#clip0_22_5194)">
<path d="M2.00002 16C0.800024 16 0 15.2 0 14V5.99997C0 2.59998 2.59998 0 5.99997 0H14C15.2 0 16 0.800024 16 2.00002C16 3.20001 15.2 4.00004 14 4.00004H5.99997C4.79998 4.00004 3.99996 4.80006 3.99996 6.00006V14C4.00004 15.2 3.20001 16 2.00002 16Z" fill="white"/>
<path d="M42 16C40.8001 16 40 15.2 40 14V5.99997C40 4.79998 39.2 3.99996 38 3.99996H30C28.8 3.99996 28 3.19993 28 1.99994C28 0.799943 28.8 0 30 0H38C41.4 0 44 2.59998 44 5.99997V14C44.0001 15.2 43.2 16 42 16Z" fill="white"/>
<path d="M14 44H5.99997C2.59998 44 0 41.4 0 38V30C0 28.8 0.800024 28 2.00002 28C3.20001 28 4.00004 28.8 4.00004 30V38C4.00004 39.2 4.80006 40 6.00006 40H14C15.2 40 16.0001 40.8001 16.0001 42.0001C16 43.2 15.2 44 14 44Z" fill="white"/>
<path d="M38 44.0001H30C28.8 44.0001 28 43.2 28 42C28 40.8001 28.8 40 30 40H38C39.2 40 40 39.2 40 38V30C40 28.8 40.8001 28 42.0001 28C43.2 28 44.0001 28.8 44.0001 30V38C44 41.4001 41.4 44.0001 38 44.0001Z" fill="white"/>
<path d="M18 20H10C8.80002 20 8 19.2 8 18V10C8 8.80002 8.80002 8 10 8H18C19.2 8 20 8.80002 20 10V18C20 19.2 19.2 20 18 20ZM12 16H16.0001V12H12V16Z" fill="white"/>
<path d="M18 36H10C8.80002 36 8 35.2 8 34V26C8 24.8 8.80002 24 10 24H18C19.2 24 20 24.8 20 26V34C20 35.2 19.2 36 18 36ZM12 32H16.0001V28H12V32Z" fill="white"/>
<path d="M34 20H26C24.8 20 24 19.2 24 18V10C24 8.80002 24.8 8 26 8H34C35.2 8 36 8.80002 36 10V18C36 19.2 35.2 20 34 20ZM28 16H32.0001V12H28V16Z" fill="white"/>
<path d="M26 30.0001C24.8 30.0001 24 29.2 24 28V26C24 24.8 24.8 24 26 24C27.2 24 28 24.8 28 26V28C28 29.2001 27.2 30.0001 26 30.0001Z" fill="white"/>
<path d="M34 28H32C30.8 28 30 27.2 30 26C30 24.8 30.8 24 32 24H34C35.2 24 36.0001 24.8 36.0001 26C36.0001 27.2 35.2 28 34 28Z" fill="white"/>
<path d="M34 36H28C26.8 36 26 35.2 26 34C26 32.8 26.8 32 28 32H34C35.2 32 36 32.8 36 34C36 35.2 35.2 36 34 36Z" fill="white"/>
</g>
<defs>
<clipPath id="clip0_22_5194">
<rect width="44" height="44" fill="white"/>
</clipPath>
</defs>
</svg>
