<svg width="18" height="18" viewBox="0 0 18 18" fill="none" xmlns="http://www.w3.org/2000/svg">
<g clip-path="url(#clip0_16_10048)">
<path d="M0.818189 6.54545C0.327282 6.54545 0 6.21817 0 5.72726V2.45454C0 1.06363 1.06363 0 2.45454 0H5.72726C6.21817 0 6.54545 0.327282 6.54545 0.818189C6.54545 1.3091 6.21817 1.63638 5.72726 1.63638H2.45454C1.96363 1.63638 1.63635 1.96366 1.63635 2.45457V5.72729C1.63638 6.21817 1.3091 6.54545 0.818189 6.54545Z" fill="#777777"/>
<path d="M17.1819 6.54545C16.691 6.54545 16.3637 6.21817 16.3637 5.72726V2.45454C16.3637 1.96363 16.0364 1.63635 15.5455 1.63635H12.2728C11.7819 1.63635 11.4546 1.30906 11.4546 0.818156C11.4546 0.327249 11.7819 0 12.2728 0H15.5455C16.9364 0 18 1.06363 18 2.45454V5.72726C18.0001 6.21817 17.6728 6.54545 17.1819 6.54545Z" fill="#777777"/>
<path d="M5.72726 18H2.45454C1.06363 18 0 16.9364 0 15.5455V12.2728C0 11.7819 0.327282 11.4546 0.81819 11.4546C1.3091 11.4546 1.63638 11.7819 1.63638 12.2728V15.5455C1.63638 16.0364 1.96366 16.3637 2.45457 16.3637H5.72729C6.2182 16.3637 6.54548 16.691 6.54548 17.1819C6.54545 17.6728 6.21817 18 5.72726 18Z" fill="#777777"/>
<path d="M15.5455 17.9999H12.2728C11.7819 17.9999 11.4546 17.6727 11.4546 17.1818C11.4546 16.6909 11.7819 16.3636 12.2728 16.3636H15.5455C16.0364 16.3636 16.3637 16.0363 16.3637 15.5454V12.2727C16.3637 11.7818 16.691 11.4545 17.1819 11.4545C17.6728 11.4545 18.0001 11.7818 18.0001 12.2727V15.5454C18 16.9363 16.9364 17.9999 15.5455 17.9999Z" fill="#777777"/>
<path d="M7.36386 8.18181H4.09114C3.60023 8.18181 3.27295 7.85453 3.27295 7.36362V4.09089C3.27295 3.59999 3.60023 3.27271 4.09114 3.27271H7.36386C7.85477 3.27271 8.18205 3.59999 8.18205 4.09089V7.36362C8.18205 7.85453 7.85477 8.18181 7.36386 8.18181ZM4.90933 6.54543H6.54571V4.90905H4.90933V6.54543Z" fill="#777777"/>
<path d="M7.36386 14.7272H4.09114C3.60023 14.7272 3.27295 14.3999 3.27295 13.909V10.6363C3.27295 10.1454 3.60023 9.81812 4.09114 9.81812H7.36386C7.85477 9.81812 8.18205 10.1454 8.18205 10.6363V13.909C8.18205 14.3999 7.85477 14.7272 7.36386 14.7272ZM4.90933 13.0908H6.54571V11.4545H4.90933V13.0908Z" fill="#777777"/>
<path d="M13.9093 8.18181H10.6365C10.1456 8.18181 9.81836 7.85453 9.81836 7.36362V4.09089C9.81836 3.59999 10.1456 3.27271 10.6365 3.27271H13.9093C14.4002 3.27271 14.7275 3.59999 14.7275 4.09089V7.36362C14.7275 7.85453 14.4002 8.18181 13.9093 8.18181ZM11.4547 6.54543H13.0911V4.90905H11.4547V6.54543Z" fill="#777777"/>
<path d="M10.6365 12.2727C10.1456 12.2727 9.81836 11.9454 9.81836 11.4545V10.6363C9.81836 10.1454 10.1456 9.81812 10.6365 9.81812C11.1275 9.81812 11.4547 10.1454 11.4547 10.6363V11.4545C11.4547 11.9454 11.1275 12.2727 10.6365 12.2727Z" fill="#777777"/>
<path d="M13.9093 11.4545H13.0911C12.6002 11.4545 12.2729 11.1272 12.2729 10.6363C12.2729 10.1454 12.6002 9.81812 13.0911 9.81812H13.9093C14.4002 9.81812 14.7275 10.1454 14.7275 10.6363C14.7275 11.1272 14.4002 11.4545 13.9093 11.4545Z" fill="#777777"/>
<path d="M13.909 14.7273H11.4544C10.9635 14.7273 10.6362 14.4 10.6362 13.9091C10.6362 13.4182 10.9635 13.0909 11.4544 13.0909H13.909C14.3999 13.0909 14.7271 13.4182 14.7271 13.9091C14.7271 14.4 14.3999 14.7273 13.909 14.7273Z" fill="#777777"/>
</g>
<defs>
<clipPath id="clip0_16_10048">
<rect width="18" height="18" fill="white"/>
</clipPath>
</defs>
</svg>
