<svg width="44" height="44" viewBox="0 0 44 44" fill="none" xmlns="http://www.w3.org/2000/svg">
<g clip-path="url(#clip0_11_2800)">
<g filter="url(#filter0_d_11_2800)">
<path d="M22 3.66663C11.8873 3.66663 3.66666 11.8946 3.66666 22C3.66666 32.1126 11.8873 40.3333 22 40.3333C32.1053 40.3333 40.3333 32.1126 40.3333 22C40.3333 11.8946 32.1053 3.66663 22 3.66663ZM21.9311 15.8876C21.9311 17.8148 20.5421 19.4186 18.7139 19.764V33.5815C18.7139 33.9863 18.3861 34.3148 17.9806 34.3148C17.5758 34.3148 17.2473 33.9863 17.2473 33.5815V19.764C15.4191 19.4186 14.0309 17.8148 14.0309 15.8876V10.4192C14.0309 10.0144 14.3587 9.68583 14.7642 9.68583C15.169 9.68583 15.4975 10.0144 15.4975 10.4192V15.1543H17.2473V10.4192C17.2473 10.0144 17.5758 9.68583 17.9806 9.68583C18.3861 9.68583 18.7139 10.0144 18.7139 10.4192V15.1543H20.4644V10.4192C20.4644 10.0144 20.7922 9.68583 21.1977 9.68583C21.6033 9.68583 21.9311 10.0144 21.9311 10.4192V15.8876ZM29.9354 24.0768C29.9215 24.472 29.5973 24.7844 29.2028 24.7844H26.2504V33.5852C26.2504 33.99 25.9219 34.3185 25.5171 34.3185C25.1115 34.3185 24.7837 33.99 24.7837 33.5852V10.4214C24.7837 10.1603 24.9223 9.91903 25.1489 9.78776C25.3741 9.65576 25.6527 9.65503 25.8801 9.78483C26.0627 9.88896 30.3461 12.4674 29.9354 24.0768Z" fill="#00F6DF"/>
</g>
<path d="M26.2504 23.3178H28.49C28.6088 17.0427 27.2705 13.8182 26.2504 12.2841V23.3178Z" fill="#00F6DF"/>
</g>
<defs>
<filter id="filter0_d_11_2800" x="-0.333344" y="3.66663" width="44.6667" height="44.6666" filterUnits="userSpaceOnUse" color-interpolation-filters="sRGB">
<feFlood flood-opacity="0" result="BackgroundImageFix"/>
<feColorMatrix in="SourceAlpha" type="matrix" values="0 0 0 0 0 0 0 0 0 0 0 0 0 0 0 0 0 0 127 0" result="hardAlpha"/>
<feOffset dy="4"/>
<feGaussianBlur stdDeviation="2"/>
<feComposite in2="hardAlpha" operator="out"/>
<feColorMatrix type="matrix" values="0 0 0 0 0 0 0 0 0 0 0 0 0 0 0 0 0 0 0.25 0"/>
<feBlend mode="normal" in2="BackgroundImageFix" result="effect1_dropShadow_11_2800"/>
<feBlend mode="normal" in="SourceGraphic" in2="effect1_dropShadow_11_2800" result="shape"/>
</filter>
<clipPath id="clip0_11_2800">
<rect width="44" height="44" fill="white"/>
</clipPath>
</defs>
</svg>
