<svg width="22" height="22" viewBox="0 0 22 22" fill="none" xmlns="http://www.w3.org/2000/svg">
<g clip-path="url(#clip0_9_986)" filter="url(#filter0_i_9_986)">
<path d="M8.85433 17.701C10.8207 17.7011 12.7309 17.045 14.2822 15.8367L20.1349 21.6894C20.5721 22.1116 21.2688 22.0995 21.6911 21.6623C22.103 21.2358 22.103 20.5597 21.6911 20.1332L15.8384 14.2805C18.8367 10.4209 18.1385 4.86137 14.2788 1.86304C10.4192 -1.13529 4.85971 -0.43708 1.86138 3.42258C-1.13695 7.28224 -0.438743 12.8417 3.42092 15.8401C4.97478 17.0472 6.88664 17.702 8.85433 17.701ZM4.15173 4.15001C6.74893 1.55277 10.9598 1.55272 13.5571 4.14992C16.1543 6.74711 16.1544 10.958 13.5572 13.5552C10.96 16.1525 6.74907 16.1525 4.15183 13.5553C4.15178 13.5553 4.15178 13.5553 4.15173 13.5552C1.55454 10.977 1.53923 6.78143 4.11751 4.18424C4.1289 4.1728 4.14029 4.1614 4.15173 4.15001Z" fill="white"/>
</g>
<defs>
<filter id="filter0_i_9_986" x="0" y="0" width="22" height="26" filterUnits="userSpaceOnUse" color-interpolation-filters="sRGB">
<feFlood flood-opacity="0" result="BackgroundImageFix"/>
<feBlend mode="normal" in="SourceGraphic" in2="BackgroundImageFix" result="shape"/>
<feColorMatrix in="SourceAlpha" type="matrix" values="0 0 0 0 0 0 0 0 0 0 0 0 0 0 0 0 0 0 127 0" result="hardAlpha"/>
<feOffset dy="4"/>
<feGaussianBlur stdDeviation="2"/>
<feComposite in2="hardAlpha" operator="arithmetic" k2="-1" k3="1"/>
<feColorMatrix type="matrix" values="0 0 0 0 0 0 0 0 0 0 0 0 0 0 0 0 0 0 0.25 0"/>
<feBlend mode="normal" in2="shape" result="effect1_innerShadow_9_986"/>
</filter>
<clipPath id="clip0_9_986">
<rect width="22" height="22" fill="white"/>
</clipPath>
</defs>
</svg>
