<svg width="35" height="35" viewBox="0 0 35 35" fill="none" xmlns="http://www.w3.org/2000/svg">
<g clip-path="url(#clip0_15_9002)">
<path d="M28.8907 18.4451C30.3491 18.4451 31.5317 19.6273 31.5317 21.0862C31.5317 21.1986 31.5225 21.3093 31.5084 21.4179C31.3447 22.7197 30.2367 23.7265 28.891 23.7265C27.5089 23.7265 26.3758 22.6642 26.2609 21.3111C26.2549 21.2372 26.2499 21.1618 26.2499 21.0858C26.2496 19.6273 27.4318 18.4451 28.8907 18.4451ZM30.2126 20.091L29.6744 20.6296C29.7161 20.7014 29.749 20.7788 29.7702 20.8616H30.5291C30.4902 20.5744 30.3802 20.312 30.2126 20.091ZM30.5327 21.3189H29.7677C29.7461 21.4002 29.7143 21.4773 29.6719 21.548L30.2116 22.0873C30.3788 21.8681 30.4913 21.6057 30.5327 21.3189ZM29.1191 22.7267C29.4052 22.6868 29.6652 22.5747 29.8851 22.4088L29.3483 21.8716C29.2776 21.913 29.2001 21.9434 29.1191 21.9646V22.7267ZM29.1191 20.2077C29.2022 20.2296 29.28 20.2621 29.3525 20.3049L29.8904 19.767C29.6694 19.599 29.407 19.488 29.1191 19.448V20.2077ZM28.6618 19.4473C28.374 19.4873 28.1112 19.599 27.8905 19.7667L28.4281 20.3046C28.5002 20.2618 28.5787 20.2292 28.6615 20.2073L28.6618 19.4473ZM28.6618 22.726V21.965C28.5805 21.9434 28.5038 21.9133 28.433 21.8716L27.8958 22.4088C28.1158 22.5747 28.3761 22.6861 28.6618 22.726ZM27.5683 22.0898L28.1098 21.5477C28.0674 21.4766 28.033 21.4005 28.0115 21.3192H27.2525C27.2929 21.605 27.4007 21.8695 27.5683 22.0898ZM28.0104 20.8616C28.032 20.7788 28.0645 20.7014 28.1063 20.6296L27.5673 20.091C27.4007 20.312 27.2907 20.5744 27.2511 20.8619H28.0104V20.8616Z" fill="white"/>
<path d="M6.96097 18.4451C8.41944 18.4451 9.60205 19.6273 9.60205 21.0862C9.60205 21.1986 9.59286 21.3093 9.57871 21.4179C9.41497 22.7197 8.30697 23.7265 6.96168 23.7265C5.5796 23.7265 4.44649 22.6642 4.3312 21.3111C4.32519 21.2372 4.32024 21.1618 4.32024 21.0858C4.31953 19.6273 5.50215 18.4451 6.96097 18.4451ZM8.28293 20.091L7.74502 20.6296C7.78675 20.7014 7.81964 20.7788 7.84086 20.8616H8.5998C8.56054 20.5744 8.45056 20.312 8.28293 20.091ZM8.60263 21.3189H7.83768C7.8161 21.4002 7.78428 21.4773 7.74184 21.548L8.28116 22.0873C8.44914 21.8681 8.56196 21.6057 8.60263 21.3189ZM7.18943 22.7267C7.47553 22.6868 7.73547 22.5747 7.95544 22.4088L7.4186 21.8716C7.34787 21.913 7.27042 21.9434 7.18943 21.9646V22.7267ZM7.18943 20.2077C7.27254 20.2296 7.35034 20.2621 7.42284 20.3049L7.96075 19.767C7.73971 19.599 7.47766 19.488 7.18943 19.448V20.2077ZM6.7318 19.4473C6.44393 19.4873 6.18116 19.599 5.96048 19.7667L6.49839 20.3046C6.57053 20.2618 6.64905 20.2285 6.7318 20.2073V19.4473ZM6.7318 22.726V21.965C6.65046 21.9434 6.57372 21.9133 6.50299 21.8716L5.96579 22.4088C6.18576 22.5747 6.4464 22.6861 6.7318 22.726ZM5.63866 22.0898L6.1801 21.5484C6.13767 21.4769 6.10301 21.4013 6.08179 21.3196H5.32285C5.36316 21.605 5.47067 21.8695 5.63866 22.0898ZM6.08073 20.8616C6.1023 20.7788 6.13448 20.7014 6.17657 20.6296L5.63795 20.091C5.47103 20.312 5.3614 20.5744 5.32143 20.8619H6.08073V20.8616Z" fill="white"/>
<path d="M0.619041 17.0779V15.1236C0.619041 14.8092 0.847504 14.5429 1.15801 14.4945C1.90316 14.3778 3.22405 14.1574 3.81748 13.9746C4.66837 13.7122 7.95593 12.3202 9.09434 12.0589C10.2331 11.7975 15.3674 10.402 20.285 12.1066C21.1171 12.3948 24.8606 14.1843 27.0617 15.1148C27.7099 15.1289 34.1263 16.4665 34.4679 17.3831C34.8095 18.3001 34.9167 18.745 34.9796 18.9777C35.0426 19.2104 34.9796 20.3241 34.5029 21.0997C34.017 21.3744 33.0816 21.5591 32.0001 21.6828C32.0125 21.6167 32.0259 21.5516 32.0344 21.4848C32.0532 21.3419 32.062 21.2114 32.062 21.0869C32.062 19.3381 30.6396 17.915 28.8904 17.915C27.1413 17.915 25.7189 19.3378 25.7189 21.0869C25.7189 21.1768 25.7249 21.2659 25.7316 21.3536C25.7482 21.5499 25.7836 21.7405 25.8349 21.924C25.8324 21.924 25.8264 21.924 25.8264 21.924L10.0832 21.6072C10.0902 21.5665 10.0994 21.5262 10.1047 21.4848C10.1235 21.3426 10.1323 21.2118 10.1323 21.0869C10.1323 19.3381 8.70992 17.9154 6.96075 17.9154C5.21159 17.9154 3.78884 19.3378 3.78884 21.0869C3.78884 21.0936 3.78955 21.0993 3.7899 21.1057L3.7227 21.1L1.03105 20.5932C1.03105 20.5932 0.000148773 20.0444 0.000148773 18.5343C-0.000205994 17.5271 0.619041 17.0779 0.619041 17.0779ZM16.236 15.2251L22.1155 15.4051C22.0073 14.5242 22.5289 14.3265 22.5289 14.3265C20.1916 12.2049 15.481 12.1331 15.481 12.1331L16.236 15.2251ZM9.63756 14.956L14.9954 15.136L14.5098 12.1335C11.7407 12.0974 10.1588 12.7085 10.1588 12.7085L9.36772 13.9852L9.63756 14.956ZM6.617 14.9376H8.10977L9.60219 12.8882C8.48252 13.3338 7.58636 13.773 7.0527 14.0506C6.72876 14.219 6.55193 14.5786 6.617 14.9376Z" fill="white"/>
</g>
<defs>
<clipPath id="clip0_15_9002">
<rect width="35" height="35" fill="white" transform="matrix(-1 0 0 1 35 0)"/>
</clipPath>
</defs>
</svg>
