<svg width="35" height="35" viewBox="0 0 35 35" fill="none" xmlns="http://www.w3.org/2000/svg">
<g clip-path="url(#clip0_15_8963)">
<path d="M6.10934 18.4451C4.65088 18.4451 3.46826 19.6273 3.46826 21.0862C3.46826 21.1986 3.47746 21.3093 3.4916 21.4179C3.65534 22.7197 4.76334 23.7265 6.10899 23.7265C7.49107 23.7265 8.62417 22.6642 8.73911 21.3111C8.74512 21.2372 8.75007 21.1618 8.75007 21.0858C8.75043 19.6273 7.56816 18.4451 6.10934 18.4451ZM4.78739 20.091L5.32565 20.6296C5.28392 20.7014 5.25103 20.7788 5.22981 20.8616H4.47087C4.50977 20.5744 4.61976 20.312 4.78739 20.091ZM4.46733 21.3189H5.23228C5.25386 21.4002 5.28569 21.4773 5.32812 21.548L4.78845 22.0873C4.62117 21.8681 4.50871 21.6057 4.46733 21.3189ZM5.88088 22.7267C5.59478 22.6868 5.33484 22.5747 5.11487 22.4088L5.65172 21.8716C5.72245 21.913 5.7999 21.9434 5.88088 21.9646V22.7267ZM5.88088 20.2077C5.79778 20.2296 5.71997 20.2621 5.64747 20.3049L5.10957 19.767C5.3306 19.599 5.59301 19.488 5.88088 19.448V20.2077ZM6.33816 19.4473C6.62603 19.4873 6.8888 19.599 7.10948 19.7667L6.57192 20.3046C6.49978 20.2618 6.42127 20.2292 6.33851 20.2073L6.33816 19.4473ZM6.33816 22.726V21.965C6.4195 21.9434 6.49624 21.9133 6.56697 21.8716L7.10417 22.4088C6.8842 22.5747 6.62391 22.6861 6.33816 22.726ZM7.43165 22.0898L6.89021 21.5477C6.93265 21.4766 6.96695 21.4005 6.98853 21.3192H7.74747C7.70715 21.605 7.59929 21.8695 7.43165 22.0898ZM6.98959 20.8616C6.96801 20.7788 6.93548 20.7014 6.89375 20.6296L7.43271 20.091C7.59929 20.312 7.70927 20.5744 7.74888 20.8619H6.98959V20.8616Z" fill="white"/>
<path d="M28.039 18.4451C26.5806 18.4451 25.3979 19.6273 25.3979 21.0862C25.3979 21.1986 25.4071 21.3093 25.4213 21.4179C25.585 22.7197 26.693 23.7265 28.0383 23.7265C29.4204 23.7265 30.5535 22.6642 30.6688 21.3111C30.6748 21.2372 30.6798 21.1618 30.6798 21.0858C30.6805 19.6273 29.4978 18.4451 28.039 18.4451ZM26.7171 20.091L27.255 20.6296C27.2133 20.7014 27.1804 20.7788 27.1591 20.8616H26.4002C26.4395 20.5744 26.5494 20.312 26.7171 20.091ZM26.3974 21.3189H27.1623C27.1839 21.4002 27.2157 21.4773 27.2582 21.548L26.7188 22.0873C26.5509 21.8681 26.438 21.6057 26.3974 21.3189ZM27.8106 22.7267C27.5245 22.6868 27.2645 22.5747 27.0446 22.4088L27.5814 21.8716C27.6521 21.913 27.7296 21.9434 27.8106 21.9646V22.7267ZM27.8106 20.2077C27.7275 20.2296 27.6497 20.2621 27.5772 20.3049L27.0393 19.767C27.2603 19.599 27.5223 19.488 27.8106 19.448V20.2077ZM28.2682 19.4473C28.5561 19.4873 28.8188 19.599 29.0395 19.7667L28.5016 20.3046C28.4295 20.2618 28.351 20.2285 28.2682 20.2073V19.4473ZM28.2682 22.726V21.965C28.3495 21.9434 28.4263 21.9133 28.497 21.8716L29.0342 22.4088C28.8142 22.5747 28.5536 22.6861 28.2682 22.726ZM29.3613 22.0898L28.8199 21.5484C28.8623 21.4769 28.897 21.4013 28.9182 21.3196H29.6772C29.6368 21.605 29.5293 21.8695 29.3613 22.0898ZM28.9193 20.8616C28.8977 20.7788 28.8655 20.7014 28.8234 20.6296L29.362 20.091C29.529 20.312 29.6386 20.5744 29.6786 20.8619H28.9193V20.8616Z" fill="white"/>
<path d="M34.381 17.0779V15.1236C34.381 14.8092 34.1525 14.5429 33.842 14.4945C33.0968 14.3778 31.7759 14.1574 31.1825 13.9746C30.3316 13.7122 27.0441 12.3202 25.9057 12.0589C24.7669 11.7975 19.6326 10.402 14.715 12.1066C13.8829 12.3948 10.1394 14.1843 7.93831 15.1148C7.29006 15.1289 0.873729 16.4665 0.5321 17.3831C0.190471 18.3001 0.0833141 18.745 0.0203638 18.9777C-0.0425864 19.2104 0.0203638 20.3241 0.497088 21.0997C0.983008 21.3744 1.91842 21.5591 2.99989 21.6828C2.98751 21.6167 2.97408 21.5516 2.96559 21.4848C2.94684 21.3419 2.938 21.2114 2.938 21.0869C2.938 19.3381 4.3604 17.915 6.10956 17.915C7.85873 17.915 9.28113 19.3378 9.28113 21.0869C9.28113 21.1768 9.27512 21.2659 9.2684 21.3536C9.25177 21.5499 9.21641 21.7405 9.16513 21.924C9.1676 21.924 9.17362 21.924 9.17362 21.924L24.9168 21.6072C24.9098 21.5665 24.9006 21.5262 24.8953 21.4848C24.8765 21.3426 24.8677 21.2118 24.8677 21.0869C24.8677 19.3381 26.2901 17.9154 28.0392 17.9154C29.7884 17.9154 31.2112 19.3378 31.2112 21.0869C31.2112 21.0936 31.2105 21.0993 31.2101 21.1057L31.2773 21.1L33.969 20.5932C33.969 20.5932 34.9999 20.0444 34.9999 18.5343C35.0002 17.5271 34.381 17.0779 34.381 17.0779ZM18.764 15.2251L12.8845 15.4051C12.9927 14.5242 12.4711 14.3265 12.4711 14.3265C14.8084 12.2049 19.519 12.1331 19.519 12.1331L18.764 15.2251ZM25.3624 14.956L20.0046 15.136L20.4902 12.1335C23.2593 12.0974 24.8412 12.7085 24.8412 12.7085L25.6323 13.9852L25.3624 14.956ZM28.383 14.9376H26.8902L25.3978 12.8882C26.5175 13.3338 27.4136 13.773 27.9473 14.0506C28.2712 14.219 28.4481 14.5786 28.383 14.9376Z" fill="white"/>
</g>
<defs>
<clipPath id="clip0_15_8963">
<rect width="35" height="35" fill="white"/>
</clipPath>
</defs>
</svg>
