<svg width="21" height="21" viewBox="0 0 21 21" fill="none" xmlns="http://www.w3.org/2000/svg">
<path d="M19.6988 8.01552C19.6846 7.99923 19.6726 7.98337 19.6559 7.96752L18.92 7.25735C19.5303 7.11891 20.1874 6.6076 20.1874 6.08301C20.1874 5.47184 19.3392 5.25498 18.6153 5.25498C17.8584 5.25498 17.7705 5.77357 17.7615 6.14001L15.8628 4.30951C15.4771 3.92764 14.7455 3.6272 14.1986 3.6272H10.5006H10.4998H6.80099C6.25453 3.6272 5.52334 3.92764 5.13717 4.30951L3.23891 6.14001C3.22905 5.77357 3.14119 5.25498 2.38515 5.25498C1.66039 5.25498 0.812621 5.47184 0.812621 6.08301C0.812621 6.6076 1.47009 7.11891 2.08041 7.25735L1.34451 7.96752C1.3278 7.98337 1.31622 7.99923 1.30165 8.01552C0.514317 8.6884 0 9.93645 0 10.8421V13.5332C0 14.1863 0.257587 14.7791 0.673755 15.221V16.2646C0.673755 16.8749 1.18464 17.3725 1.81297 17.3725H3.19048C3.8188 17.3725 4.32926 16.8757 4.32926 16.2646V15.9976H10.4998H10.5006H16.6707V16.2646C16.6707 16.8757 17.1808 17.3725 17.8099 17.3725H19.187C19.8158 17.3725 20.3258 16.8749 20.3258 16.2646V15.221C20.7424 14.7791 20.9996 14.1863 20.9996 13.5332V10.8421C21.0004 9.93645 20.4861 8.6884 19.6988 8.01552ZM5.8345 5.12297C6.10152 4.90053 6.56826 4.73167 6.80099 4.73167H10.4998H10.5006H14.1994C14.4322 4.73167 14.8989 4.90053 15.1659 5.12297L17.6557 7.53593H10.5006H10.4998H3.3452L5.8345 5.12297ZM0.854195 10.4349C0.854195 9.77231 1.3728 9.23443 2.01312 9.23443C2.65302 9.23443 4.74415 10.4619 4.74415 11.1245C4.74415 11.7871 2.65302 11.6337 2.01312 11.6337C1.3728 11.6337 0.854195 11.0979 0.854195 10.4349ZM4.32969 14.8177H4.10897H3.88824L2.57887 14.8198C2.21542 14.7066 1.95912 14.5746 1.77782 14.4328C1.6861 14.3612 1.61581 14.2866 1.56095 14.2125C1.50566 14.1375 1.46538 14.0638 1.43923 13.99C1.27636 13.5297 1.61281 13.1067 1.61281 13.1067H3.84752L5.33733 14.8168L4.32969 14.8177ZM13.7134 14.8185H10.5006H10.4998H7.28702C6.61712 14.8185 6.07323 14.2746 6.07323 13.6052H10.4998H10.5006H14.9272C14.9272 14.2755 14.3833 14.8185 13.7134 14.8185ZM13.9954 12.7771H10.5006H10.4998H7.005C6.27638 12.7771 5.68492 11.8788 5.68492 10.7709H10.4998H10.5006H15.3155C15.3155 11.8792 14.724 12.7771 13.9954 12.7771ZM19.5616 13.9909C19.5351 14.0646 19.4948 14.1383 19.4395 14.2129C19.385 14.2871 19.3148 14.3616 19.2226 14.4332C19.0417 14.5751 18.785 14.7079 18.4216 14.8202L17.1122 14.8181H16.8915H16.6707H15.6622L17.1529 13.108H19.3872C19.3872 13.108 19.7241 13.5297 19.5616 13.9909ZM18.9873 11.6337C18.3478 11.6337 16.2567 11.7862 16.2567 11.1245C16.2567 10.4628 18.3478 9.23443 18.9873 9.23443C19.6276 9.23443 20.1462 9.77231 20.1462 10.4349C20.1462 11.0971 19.6276 11.6337 18.9873 11.6337Z" fill="white"/>
</svg>
