<svg width="24" height="24" viewBox="0 0 24 24" fill="none" xmlns="http://www.w3.org/2000/svg">
<g clip-path="url(#clip0_14_4959)">
<path d="M14.6666 12C14.6666 13.4727 13.4727 14.6667 11.9999 14.6667C10.5272 14.6667 9.33325 13.4727 9.33325 12C9.33325 10.5272 10.5272 9.33331 11.9999 9.33331C13.4727 9.33331 14.6666 10.5272 14.6666 12Z" fill="white"/>
<path d="M5.33334 12C5.33334 13.4727 4.13943 14.6667 2.66667 14.6667C1.19391 14.6667 -1.8094e-07 13.4727 -1.16564e-07 12C-5.21875e-08 10.5272 1.19391 9.33331 2.66667 9.33331C4.13943 9.33331 5.33334 10.5272 5.33334 12Z" fill="white"/>
<path d="M24.0001 12C24.0001 13.4727 22.8062 14.6667 21.3334 14.6667C19.8607 14.6667 18.6667 13.4727 18.6667 12C18.6667 10.5272 19.8607 9.33331 21.3334 9.33331C22.8062 9.33331 24.0001 10.5272 24.0001 12Z" fill="white"/>
</g>
<defs>
<clipPath id="clip0_14_4959">
<rect width="24" height="24" fill="white" transform="matrix(-4.37114e-08 1 1 4.37114e-08 0 0)"/>
</clipPath>
</defs>
</svg>
