<svg width="24" height="24" viewBox="0 0 24 24" fill="none" xmlns="http://www.w3.org/2000/svg">
<g clip-path="url(#clip0_22_5265)">
<path d="M14.6666 11.9999C14.6666 13.4727 13.4727 14.6666 11.9999 14.6666C10.5272 14.6666 9.33325 13.4727 9.33325 11.9999C9.33325 10.5272 10.5272 9.33325 11.9999 9.33325C13.4727 9.33325 14.6666 10.5272 14.6666 11.9999Z" fill="white"/>
<path d="M5.33334 11.9999C5.33334 13.4727 4.13943 14.6666 2.66667 14.6666C1.19391 14.6666 -1.8094e-07 13.4727 -1.16564e-07 11.9999C-5.21875e-08 10.5272 1.19391 9.33325 2.66667 9.33325C4.13943 9.33325 5.33334 10.5272 5.33334 11.9999Z" fill="white"/>
<path d="M24.0001 11.9999C24.0001 13.4727 22.8062 14.6666 21.3334 14.6666C19.8607 14.6666 18.6667 13.4727 18.6667 11.9999C18.6667 10.5272 19.8607 9.33325 21.3334 9.33325C22.8062 9.33325 24.0001 10.5272 24.0001 11.9999Z" fill="white"/>
</g>
<defs>
<clipPath id="clip0_22_5265">
<rect width="24" height="24" fill="white" transform="matrix(-4.37114e-08 1 1 4.37114e-08 0 0)"/>
</clipPath>
</defs>
</svg>
