<svg width="263" height="287" viewBox="0 0 263 287" fill="none" xmlns="http://www.w3.org/2000/svg">
<path d="M166.752 20.4983L192.804 36.6843H193.57L194.337 35.9135L201.999 20.4983L201.999 19.7275L159.856 2C154.237 11.2491 141.466 31.289 135.336 37.4551C127.673 45.1627 103.154 72.1393 72.5038 93.7207C47.984 110.986 1.24311 161.291 2.00931 162.319C14.2692 178.761 44.1528 212.418 65.6076 215.501C69.2856 215.501 116.18 183.129 139.167 166.943C139.933 165.402 142.385 162.781 146.063 164.631C149.741 166.481 172.116 177.22 182.843 182.358L234.948 219.355C236.48 220.126 213.646 236.312 208.129 239.395C207.711 239.628 228.051 259.691 238.013 269.454C241.333 273.308 247.974 281.478 247.974 283.328C247.974 285.178 254.615 285.127 257.935 284.87L261 277.933" stroke="url(#paint0_linear_11_3482)" stroke-width="3" stroke-linecap="round"/>
<defs>
<linearGradient id="paint0_linear_11_3482" x1="131.505" y1="2" x2="131.505" y2="285" gradientUnits="userSpaceOnUse">
<stop stop-color="#870AEA"/>
<stop offset="1" stop-color="#00F6DF"/>
</linearGradient>
</defs>
</svg>
