<svg width="263" height="252" viewBox="0 0 263 252" fill="none" xmlns="http://www.w3.org/2000/svg">
<path d="M135.336 2.45508C127.673 10.1627 103.154 37.1394 72.5038 58.7207C47.984 75.9858 1.24311 126.291 2.0093 127.319C14.2692 143.761 44.1528 177.418 65.6076 180.501C69.2856 180.501 116.18 148.129 139.167 131.943C139.933 130.402 142.385 127.781 146.063 129.631C149.741 131.481 172.116 142.22 182.843 147.358L234.948 184.355C236.48 185.126 213.646 201.312 208.129 204.395C207.711 204.628 228.051 224.691 238.013 234.454C241.333 238.308 247.974 246.478 247.974 248.328C247.974 250.178 254.615 250.127 257.935 249.87L261 242.933" stroke="#666666" stroke-width="3" stroke-linecap="round"/>
</svg>
